<svg width="720" height="760" viewBox="0 0 720 760" fill="none" xmlns="http://www.w3.org/2000/svg">
<path fill-rule="evenodd" clip-rule="evenodd" d="M466.699 98.2892C476.681 101.526 483.456 110.793 483.503 121.285C483.703 125.889 483.719 129.636 483.719 129.636C483.719 129.636 483.559 257.413 332.265 375.037C270.719 422.887 217.34 500.668 203.398 573.39C201.566 583.114 194.039 590.777 184.343 592.771C174.646 594.765 164.709 590.702 159.182 582.474C116.065 518.58 67.1687 399.172 148.705 257.771C222.228 130.277 357.976 65.0782 466.699 98.2892Z" fill="white"/>
<path fill-rule="evenodd" clip-rule="evenodd" d="M253.602 661.086C243.173 657.749 236.07 648.077 236.028 637.126C235.819 632.863 235.796 629.502 235.796 629.502C235.796 629.502 235.956 501.725 387.25 384.101C448.243 336.682 501.212 259.862 515.729 187.718C517.739 177.663 525.614 169.797 535.684 167.831C545.759 165.854 556.025 170.149 561.677 178.71C604.474 243.083 651.484 361.46 570.809 501.366C497.457 628.541 362.202 693.735 253.602 661.086Z" fill="white"/>
</svg>
