<svg width="996" height="1274" viewBox="0 0 996 1274" fill="none" xmlns="http://www.w3.org/2000/svg">
<path d="M996 502C996 782 498 1274 497 1274C496 1274 0 778.642 0 502.5C0 226.358 220.858 0 497 0C773.142 0 996 222 996 502Z" fill="black"/>
<g clip-path="url(#clip0_34_61)">
<path fill-rule="evenodd" clip-rule="evenodd" d="M608.957 206.936C618.938 210.173 625.713 219.439 625.761 229.931C625.961 234.535 625.977 238.283 625.977 238.283C625.977 238.283 625.817 366.059 474.523 483.683C412.977 531.534 359.598 609.314 345.656 682.036C343.824 691.76 336.296 699.424 326.6 701.418C316.904 703.412 306.967 699.349 301.44 691.121C258.323 627.227 209.427 507.818 290.963 366.418C364.486 238.923 500.234 173.725 608.957 206.936Z" fill="white"/>
<path fill-rule="evenodd" clip-rule="evenodd" d="M395.86 769.732C385.431 766.396 378.328 756.724 378.285 745.773C378.076 741.51 378.054 738.148 378.054 738.148C378.054 738.148 378.213 610.371 529.508 492.747C590.501 445.329 643.47 368.509 657.987 296.364C659.996 286.309 667.872 278.443 677.941 276.477C688.017 274.5 698.283 278.796 703.935 287.356C746.732 351.729 793.741 470.106 713.067 610.013C639.715 737.187 504.46 802.381 395.86 769.732Z" fill="white"/>
</g>
<defs>
<clipPath id="clip0_34_61">
<rect width="800" height="800" fill="white" transform="translate(97 92)"/>
</clipPath>
</defs>
</svg>
