<svg width="18" height="24" viewBox="0 0 18 24" fill="none" xmlns="http://www.w3.org/2000/svg">
<path d="M9 0.5C13.6944 0.5 17.5 4.30557 17.5 9C17.5 9.87594 17.424 10.5688 17.2168 11.2686C17.0084 11.9721 16.66 12.7069 16.0879 13.6582C15.2202 15.101 13.8807 16.9745 11.8213 19.9141L9.51367 23.2314C9.28099 23.5672 8.79978 23.5879 8.53613 23.2939L8.48633 23.2314C5.06445 18.2707 3.06897 15.5818 1.91211 13.6582C1.33998 12.7069 0.991558 11.9721 0.783203 11.2686C0.575984 10.5688 0.5 9.87594 0.5 9C0.5 4.30557 4.30556 0.5 9 0.5ZM9 4.75C6.65278 4.75 4.75 6.65278 4.75 9C4.75 11.3472 6.65278 13.25 9 13.25C11.3472 13.25 13.25 11.3472 13.25 9C13.25 6.65278 11.3472 4.75 9 4.75Z" fill="white" stroke="#9810FA"/>
<path d="M12.0488 12.0487C9.85977 14.2369 6.7206 14.6464 5.03764 12.9626C3.35295 11.2797 3.76334 8.14049 5.95154 5.95143C8.13974 3.76238 11.2798 3.35371 12.9627 5.03753C14.6466 6.72049 14.237 9.85966 12.0488 12.0479" fill="#9810FA"/>
<path d="M12.0488 12.0487C9.85977 14.2369 6.7206 14.6464 5.03764 12.9626C3.35295 11.2797 3.76334 8.14049 5.95154 5.95143C8.13974 3.76238 11.2798 3.35371 12.9627 5.03753C14.6466 6.72049 14.237 9.85966 12.0488 12.0479" fill="#9810FA"/>
<path d="M12.0488 12.0487C9.85977 14.2369 6.7206 14.6464 5.03764 12.9626C3.35295 11.2797 3.76334 8.14049 5.95154 5.95143C8.13974 3.76238 11.2798 3.35371 12.9627 5.03753C14.6466 6.72049 14.237 9.85966 12.0488 12.0479" stroke="white" stroke-linecap="round" stroke-linejoin="round"/>
<path d="M12.9642 5.03754C12.9642 5.03754 12.6598 7.17142 11.4398 8.39053C10.2207 9.60964 7.7825 8.39053 6.56338 9.60964C5.34341 10.8288 5.03906 12.9635 5.03906 12.9635" fill="#9810FA"/>
<path d="M12.9642 5.03754C12.9642 5.03754 12.6598 7.17142 11.4398 8.39053C10.2207 9.60964 7.7825 8.39053 6.56338 9.60964C5.34341 10.8288 5.03906 12.9635 5.03906 12.9635" stroke="white" stroke-linecap="round" stroke-linejoin="round"/>
</svg>
