<svg width="89" height="44" viewBox="0 0 89 44" fill="none" xmlns="http://www.w3.org/2000/svg">
<path d="M58.796 1.0207C58.9182 1.09348 59.0039 1.16939 59.0773 1.29237C59.2112 1.84377 58.8556 2.43136 58.5879 2.88656C58.3729 3.23507 58.1416 3.5721 57.8943 3.89802C57.5055 4.41688 57.3531 5.01783 57.1779 5.63346C57.015 6.20461 56.8468 6.76239 56.5779 7.29368C56.5581 7.29368 56.5383 7.29368 56.5179 7.29368C56.5054 7.04531 56.5467 6.80756 56.5882 6.56376C56.6002 6.49282 56.6118 6.42181 56.6234 6.35079C56.6899 5.94849 56.7657 5.5464 56.9248 5.16936C56.9347 5.14481 56.9447 5.12026 56.955 5.09497C57.0154 4.94746 57.0783 4.80107 57.1416 4.65478C57.4856 3.85675 57.6075 3.16038 57.6093 2.29531C57.6108 1.88929 57.6286 1.55106 57.8978 1.22469C58.1295 0.998316 58.4877 0.899503 58.796 1.0207Z" fill="#9810FA"/>
<path d="M86.9819 20.8046C87.2239 20.8873 87.4656 20.9675 87.7127 21.0333C87.7325 21.0386 87.7522 21.0439 87.7726 21.0493C87.8643 21.0736 87.9561 21.0969 88.0483 21.1192C88.3286 21.1909 88.6364 21.3242 88.8117 21.5675C88.8286 21.675 88.8286 21.675 88.8117 21.7788C88.7302 21.8827 88.6698 21.925 88.5391 21.9411C88.0496 21.9696 87.582 21.8312 87.11 21.7185C86.6171 21.6014 86.1235 21.5169 85.6205 21.4597C85.1302 21.402 84.7189 21.258 84.4017 20.8581C84.3315 20.7512 84.3205 20.6693 84.3417 20.5411C84.3995 20.43 84.465 20.381 84.578 20.3355C85.3375 20.1177 86.2728 20.5618 86.9819 20.8046Z" fill="#9810FA"/>
<path d="M82.6594 5.63672C82.8483 5.77268 82.9514 5.92581 82.9951 6.15743C83.0288 6.43193 82.9417 6.67983 82.7832 6.90264C82.558 7.17285 82.2558 7.34914 81.9151 7.42523C81.6179 7.45118 81.3072 7.46374 81.0451 7.30448C81.0125 7.28581 81.0125 7.28581 80.9792 7.26675C80.8092 7.15569 80.7117 7.01718 80.6551 6.82151C80.6134 6.4947 80.6747 6.26553 80.8594 6.00084C81.2797 5.46941 82.0706 5.27227 82.6594 5.63672Z" fill="#9810FA"/>
<path d="M4.42801 15.8492C4.71853 16.1029 4.92581 16.3694 4.98242 16.7616C4.98967 16.9226 4.9458 17.0108 4.84203 17.1278C4.61501 17.3512 4.28198 17.411 3.97461 17.4203C3.57279 17.4134 3.26377 17.2861 2.97196 17.0077C2.74495 16.7605 2.58841 16.472 2.60024 16.1299C2.62689 15.9282 2.71451 15.7769 2.86895 15.6458C3.35687 15.3137 3.99156 15.5209 4.42801 15.8492Z" fill="#9810FA"/>
<path d="M21.3499 34.0257C21.3715 35.3693 21.3715 35.3693 20.9899 35.867C20.7997 36.0585 20.5498 36.1728 20.2812 36.184C20.0941 36.1755 19.9559 36.1296 19.8263 35.9906C19.6731 35.7948 19.6506 35.6303 19.6699 35.384C19.7392 35.0134 20.102 34.6994 20.3946 34.4932C21.175 33.967 21.175 33.967 21.3499 34.0257Z" fill="#9810FA"/>
<path d="M6.7191 11.7731C6.74964 11.7754 6.78017 11.7776 6.81164 11.78C6.84417 11.7829 6.87671 11.7859 6.91023 11.7889C6.96055 11.7932 6.96055 11.7932 7.01188 11.7977C7.90437 11.8821 8.67001 12.1398 9.27555 12.8252C9.3484 12.9192 9.3828 12.9798 9.38523 13.1001C9.35336 13.1887 9.35336 13.1887 9.26898 13.2453C9.03901 13.3232 8.81845 13.308 8.60148 13.2019C8.48445 13.1369 8.37225 13.0659 8.26023 12.9925C7.92771 12.7754 7.57172 12.6471 7.18527 12.5639C6.86233 12.4932 6.70259 12.3589 6.51379 12.0888C6.46844 12.0021 6.45442 11.9273 6.44336 11.8304C6.54101 11.7714 6.6063 11.7644 6.7191 11.7731Z" fill="#9810FA"/>
<path d="M1.54872 22.0588C1.68142 22.1902 1.77309 22.3397 1.78532 22.5295C1.77316 22.7324 1.70683 22.9122 1.56794 23.0608C1.28623 23.2919 0.959942 23.3187 0.611455 23.2882C0.406724 23.2412 0.240775 23.1112 0.101455 22.9562C-0.00391188 22.7839 -0.0133907 22.61 0.0114551 22.4128C0.0654726 22.2246 0.180871 22.0968 0.341455 21.9902C0.733172 21.7786 1.19194 21.7644 1.54872 22.0588Z" fill="#9810FA"/>
<path d="M37.3888 14.477C37.6578 14.6008 37.8309 14.811 37.9377 15.0857C38.0295 15.3418 38.0321 15.6179 37.935 15.8724C37.8798 15.9907 37.8162 16.0615 37.7108 16.1366C37.5258 16.2009 37.3311 16.2074 37.1502 16.1252C36.8793 15.9645 36.7293 15.7176 36.6283 15.4214C36.5893 15.1868 36.5716 14.8869 36.6992 14.6796C36.8863 14.4524 37.1059 14.389 37.3888 14.477Z" fill="#9810FA"/>
<path d="M51.8993 33.3756C52.2141 33.6452 52.4323 34.0024 52.474 34.4229C52.4776 34.4915 52.4786 34.5596 52.4787 34.6283C52.4794 34.6511 52.4802 34.6739 52.4809 34.6974C52.4818 34.8687 52.4424 34.9985 52.3475 35.1415C52.2609 35.2168 52.2097 35.2304 52.0962 35.2452C51.8566 35.2162 51.6829 35.055 51.5375 34.8698C51.3078 34.499 51.1832 34.0804 51.2581 33.6435C51.2913 33.5055 51.3468 33.4291 51.4475 33.3303C51.6039 33.2779 51.7525 33.3033 51.8993 33.3756Z" fill="#9810FA"/>
<path d="M54.7492 6.62966C54.9068 6.75027 55.0111 6.88514 55.0492 7.08245C55.0764 7.34614 55.0416 7.55822 54.8786 7.76917C54.7263 7.93645 54.531 8.0085 54.3104 8.02764C54.1251 8.02382 53.9552 7.96493 53.8155 7.84098C53.6279 7.63337 53.5947 7.46494 53.6002 7.18633C53.619 6.96885 53.7052 6.85641 53.8604 6.7089C54.1088 6.50202 54.4634 6.45821 54.7492 6.62966Z" fill="#9810FA"/>
<path d="M60.2073 41.9031C60.3031 41.9209 60.3566 41.9498 60.429 42.0146C60.4477 42.0312 60.4664 42.0477 60.4857 42.0647C60.5052 42.0824 60.5247 42.1 60.5448 42.1181C60.575 42.145 60.575 42.145 60.6058 42.1724C60.6454 42.2077 60.685 42.2431 60.7245 42.2786C60.7869 42.3342 60.8505 42.3884 60.9142 42.4426C61.159 42.6608 61.3859 42.9475 61.4145 43.2857C61.418 43.4312 61.4193 43.5369 61.3586 43.6708C61.2313 43.8022 61.1259 43.8403 60.9461 43.8463C60.7356 43.8397 60.5596 43.7884 60.4006 43.6428C60.1362 43.3414 60.0596 42.9949 60.0817 42.6019C60.1017 42.3698 60.1341 42.1242 60.2073 41.9031Z" fill="#9810FA"/>
<path d="M62.8038 38.0855C63.1469 38.153 63.4879 38.4195 63.6869 38.7036C63.8165 38.917 63.8897 39.1463 63.8669 39.3979C63.8295 39.5214 63.7939 39.5925 63.7019 39.6828C63.5049 39.7713 63.3118 39.7548 63.1113 39.6809C62.8201 39.5478 62.5766 39.3319 62.4588 39.0262C62.3792 38.7384 62.4118 38.4556 62.5469 38.1905C62.6219 38.0964 62.6824 38.0806 62.8038 38.0855Z" fill="#9810FA"/>
<path d="M41.732 36.981C41.9174 37.0514 42.0007 37.2546 42.0808 37.4262C42.2082 37.713 42.2188 38.0295 42.1179 38.3274C42.0415 38.5072 41.9556 38.6883 41.7864 38.794C41.6272 38.8484 41.4564 38.8451 41.2989 38.7902C41.143 38.6833 41.0455 38.5576 41.0064 38.3714C40.972 38.0209 41.0786 37.6928 41.2764 37.4054C41.6227 36.9841 41.6227 36.9841 41.732 36.981Z" fill="#9810FA"/>
<path d="M67.1096 7.0039C67.0409 7.20634 66.8926 7.2842 66.7196 7.39632C66.6508 7.44213 66.582 7.48802 66.5134 7.53404C66.4946 7.54659 66.4758 7.55913 66.4564 7.57206C65.9644 7.90164 65.4847 8.2504 65.0086 8.60269C64.7292 8.8086 64.445 9.00709 64.1588 9.20312C64.1161 9.23238 64.0734 9.26168 64.0307 9.29103C63.9706 9.33238 63.9103 9.37354 63.8499 9.41464C63.8316 9.42726 63.8133 9.43988 63.7944 9.45288C63.6665 9.53951 63.6665 9.53951 63.5996 9.53951C63.8951 8.72149 64.9595 8.09367 65.65 7.65806C65.7346 7.60446 65.8187 7.55002 65.9028 7.4956C66.706 6.98263 66.706 6.98263 67.1096 7.0039Z" fill="#9810FA"/>
<path d="M55.7149 14.3315C55.8427 14.3985 55.9199 14.4815 55.9771 14.6126C56.007 14.8113 56.0067 14.9844 55.8983 15.1579C55.7747 15.3165 55.6371 15.4084 55.4414 15.4502C55.2815 15.4692 55.1512 15.4502 55.0077 15.3767C54.881 15.267 54.8065 15.1639 54.7771 14.9975C54.7645 14.8096 54.8234 14.6372 54.9466 14.4951C55.1609 14.3011 55.4354 14.246 55.7149 14.3315Z" fill="#9810FA"/>
<path d="M44.5514 0.576391C44.6889 0.701592 44.7998 0.8117 44.8183 1.00595C44.8251 1.2292 44.8154 1.38622 44.6601 1.55366C44.5295 1.66757 44.4102 1.70757 44.2401 1.70458C44.0418 1.66738 43.9358 1.5931 43.8107 1.43669C43.7226 1.26848 43.7361 1.07301 43.7601 0.889569C43.8134 0.735028 43.9107 0.618584 44.0574 0.546206C44.2277 0.494958 44.3917 0.499024 44.5514 0.576391Z" fill="#9810FA"/>
<path d="M49.1016 0.0351052C49.2603 0.117887 49.3441 0.239374 49.3996 0.406767C49.4231 0.603327 49.3942 0.757471 49.2796 0.919925C49.1479 1.06299 49.0105 1.13241 48.8183 1.14255C48.6694 1.13856 48.589 1.10004 48.4696 1.01048C48.3337 0.834152 48.2946 0.68587 48.3196 0.467139C48.3817 0.266672 48.4978 0.146774 48.6762 0.0412366C48.809 -0.015059 48.9657 -0.0103831 49.1016 0.0351052Z" fill="#9810FA"/>
<path d="M13.0566 15.8752C13.2241 15.9725 13.3715 16.1107 13.4335 16.2978C13.4448 16.4369 13.4459 16.5117 13.3885 16.6393C13.2638 16.7742 13.1378 16.8035 12.9591 16.8242C12.6947 16.8111 12.4905 16.7017 12.3103 16.5121C12.2098 16.376 12.1886 16.2543 12.2035 16.0865C12.2477 15.9802 12.3107 15.8977 12.4099 15.837C12.6167 15.765 12.8592 15.7855 13.0566 15.8752Z" fill="#9810FA"/>
<path d="M15.7936 7.64062C16.1408 7.65067 16.4281 7.92362 16.6559 8.16286C16.8147 8.34176 16.9603 8.53589 17.0236 8.7707C17.012 8.84051 17.012 8.84051 16.9936 8.89145C16.5918 8.92302 16.274 8.75319 15.9659 8.50481C15.7872 8.34045 15.6432 8.12412 15.6005 7.88093C15.5986 7.81608 15.5986 7.81608 15.6136 7.7142C15.6831 7.64431 15.699 7.64351 15.7936 7.64062Z" fill="#9810FA"/>
<path d="M51.293 40.4332C51.4979 40.5017 51.5915 40.6997 51.6827 40.8826C51.7804 41.0824 51.8124 41.241 51.8139 41.4637C51.8145 41.4864 51.8152 41.5091 51.8158 41.5324C51.8168 41.6711 51.8054 41.7603 51.7164 41.8731C51.6304 41.9164 51.572 41.9125 51.4764 41.9033C51.2257 41.7771 51.0876 41.527 50.9964 41.2694C50.928 41.0471 50.8889 40.797 50.9758 40.5751C51.0569 40.43 51.1319 40.4059 51.293 40.4332Z" fill="#9810FA"/>
<path d="M49.0401 4.51184C49.1181 4.5691 49.1544 4.62294 49.2032 4.70616C49.2579 4.79645 49.325 4.86085 49.4001 4.93444C49.4895 5.06946 49.4781 5.19875 49.4601 5.35704C49.3845 5.51498 49.257 5.64035 49.1001 5.71927C48.9432 5.735 48.8109 5.73867 48.667 5.67022C48.5328 5.54512 48.4633 5.45067 48.4551 5.2646C48.4598 5.16566 48.4695 5.11664 48.5151 5.02689C48.5997 4.95663 48.6748 4.92615 48.7789 4.89447C48.8364 4.87819 48.8364 4.87819 48.8601 4.8137C48.771 4.8137 48.6819 4.8137 48.5901 4.8137C48.5956 4.69172 48.6064 4.64534 48.697 4.56089C48.8292 4.49798 48.8951 4.49302 49.0401 4.51184Z" fill="#9810FA"/>
<path d="M5.15258 10.7739C5.37322 10.9349 5.64196 11.1362 5.78258 11.3776C5.78258 11.4175 5.78258 11.4573 5.78258 11.4984C5.22191 11.4442 4.48895 11.2826 4.10258 10.8343C4.0467 10.7385 4.03645 10.6737 4.04258 10.5626C4.44164 10.4315 4.80281 10.5618 5.15258 10.7739Z" fill="#9810FA"/>
<path d="M3.88234 18.6999C4.00014 18.8016 4.00014 18.8016 4.01172 18.9018C4.00234 18.9716 4.00234 18.9716 3.97234 19.0018C3.90164 18.999 3.831 18.9943 3.76047 18.9886C3.72176 18.9855 3.68305 18.9824 3.64316 18.9792C3.59821 18.9754 3.59821 18.9754 3.55234 18.9716C3.56534 18.9873 3.57833 19.0029 3.59172 19.0191C3.60842 19.0401 3.62513 19.0612 3.64234 19.0829C3.65905 19.1035 3.67576 19.1242 3.69297 19.1455C3.74073 19.2275 3.74914 19.2706 3.73234 19.364C3.67216 19.4273 3.63125 19.4511 3.54555 19.4666C3.23753 19.4635 2.98121 19.3839 2.74234 19.1829C2.65234 19.079 2.65234 19.079 2.65234 18.9754C2.71277 18.7854 2.84318 18.6745 3.01234 18.5792C3.31294 18.457 3.60762 18.5495 3.88234 18.6999ZM3.25234 18.7905C3.25234 18.8004 3.25234 18.8104 3.25234 18.8206C3.30184 18.8206 3.35134 18.8206 3.40234 18.8206C3.40234 18.8107 3.40234 18.8007 3.40234 18.7905C3.35284 18.7905 3.30334 18.7905 3.25234 18.7905Z" fill="#9810FA"/>
<path d="M62.1287 8.99868C62.2214 9.07744 62.2472 9.12787 62.2618 9.2496C62.2561 9.43271 62.1719 9.57964 62.0448 9.70758C61.8615 9.85659 61.6682 9.9361 61.4312 9.9269C61.3286 9.91194 61.2668 9.89181 61.1949 9.81559C61.1281 9.69454 61.1176 9.63893 61.1387 9.50241C61.2084 9.28184 61.359 9.12922 61.557 9.01637C61.7389 8.93709 61.9455 8.91805 62.1287 8.99868Z" fill="#9810FA"/>
<path d="M67.9542 33.2984C68.1747 33.4125 68.3131 33.5479 68.4173 33.7765C68.456 33.898 68.4459 33.972 68.4117 34.0946C68.3554 34.1744 68.326 34.1837 68.2317 34.2153C67.9973 34.2442 67.8149 34.1853 67.6256 34.0459C67.4847 33.9274 67.3484 33.812 67.3194 33.6213C67.3126 33.4887 67.3112 33.4006 67.3861 33.289C67.5743 33.211 67.7665 33.2214 67.9542 33.2984Z" fill="#9810FA"/>
<path d="M59.4229 28.4671C59.6435 28.5812 59.7819 28.7166 59.8861 28.9453C59.9247 29.0667 59.9146 29.1407 59.8804 29.2633C59.8242 29.3431 59.7947 29.3524 59.7004 29.384C59.4661 29.4129 59.2837 29.354 59.0944 29.2146C58.9534 29.0961 58.8172 28.9807 58.7881 28.79C58.7813 28.6574 58.78 28.5693 58.8548 28.4577C59.043 28.3797 59.2352 28.3901 59.4229 28.4671Z" fill="#9810FA"/>
<path d="M81.2312 18.5225C81.3708 18.6205 81.4792 18.7434 81.5219 18.9111C81.546 19.1087 81.5198 19.2337 81.4019 19.3941C81.2867 19.503 81.1569 19.5018 81.0055 19.497C80.8248 19.4703 80.7198 19.3806 80.6069 19.2413C80.5333 19.0906 80.5396 18.9232 80.5619 18.7602C80.6967 18.4738 80.9482 18.4258 81.2312 18.5225Z" fill="#9810FA"/>
<path d="M47.4806 3.84774C47.6265 3.91711 47.7117 4.00287 47.7806 4.1496C47.804 4.31032 47.8016 4.43857 47.73 4.58541C47.6218 4.70607 47.526 4.80319 47.3591 4.81982C47.2062 4.82301 47.1009 4.81252 46.9706 4.72313C46.859 4.61169 46.7969 4.51549 46.7812 4.35524C46.7948 4.1895 46.8406 4.06727 46.9604 3.94986C47.1221 3.83158 47.2858 3.81563 47.4806 3.84774Z" fill="#9810FA"/>
<path d="M14.6582 10.6482C14.834 10.7284 14.9721 10.835 15.0521 11.0153C15.074 11.1213 15.0767 11.2117 15.0521 11.3172C14.9863 11.4025 14.9371 11.4505 14.8421 11.4983C14.5796 11.5252 14.3698 11.5036 14.1521 11.3474C14.0509 11.2557 13.9738 11.1496 13.9421 11.0153C13.9392 10.9302 13.9454 10.855 13.9721 10.7739C14.1609 10.5838 14.4071 10.5746 14.6582 10.6482Z" fill="#9810FA"/>
<path d="M15.034 16.5912C15.2109 16.6661 15.3432 16.7599 15.4687 16.9072C15.5203 17.0368 15.5254 17.1566 15.5025 17.294C15.4417 17.3939 15.3977 17.4323 15.2852 17.4637C15.0715 17.4961 14.8945 17.461 14.7155 17.3388C14.5796 17.228 14.4972 17.133 14.4525 16.9619C14.4471 16.8694 14.4583 16.8134 14.4825 16.7204C14.6441 16.5579 14.8158 16.525 15.034 16.5912Z" fill="#9810FA"/>
<path d="M76.6433 30.7657C76.8636 30.8602 77.0594 30.9767 77.1709 31.1968C77.1989 31.3042 77.2115 31.4015 77.1802 31.51C77.1172 31.5885 77.0475 31.6148 76.9496 31.6317C76.6831 31.6413 76.4597 31.5584 76.2625 31.3746C76.1384 31.2347 76.0803 31.1484 76.0821 30.9545C76.0909 30.895 76.0909 30.895 76.1471 30.8214C76.2952 30.7118 76.4692 30.7136 76.6433 30.7657Z" fill="#9810FA"/>
<path d="M54.8665 35.836C55.0361 35.9182 55.1927 36.0766 55.2565 36.2586C55.2895 36.4274 55.2977 36.5495 55.2265 36.7114C55.1324 36.7973 55.0709 36.8285 54.9453 36.8472C54.7498 36.8201 54.6182 36.7515 54.4953 36.5944C54.3753 36.4155 54.3398 36.272 54.3691 36.0578C54.3865 35.9869 54.3865 35.9869 54.4428 35.8926C54.5825 35.8082 54.7076 35.8108 54.8665 35.836Z" fill="#9810FA"/>
<path d="M71.2916 25.6126C71.412 25.6434 71.5136 25.6943 71.5916 25.7937C71.5995 25.8601 71.5995 25.8601 71.5991 25.9352C71.6091 26.0997 71.671 26.1713 71.7896 26.2801C71.8316 26.337 71.8316 26.337 71.8285 26.4157C71.8016 26.4879 71.8016 26.4879 71.7116 26.5483C71.41 26.5723 71.087 26.4307 70.8359 26.2683C70.7724 26.2075 70.7565 26.1725 70.7422 26.0861C70.7419 25.9421 70.7741 25.8003 70.8416 25.6729C70.9819 25.5788 71.1271 25.5984 71.2916 25.6126Z" fill="#9810FA"/>
<path d="M18.2514 26.8801C18.4015 26.8907 18.4945 26.937 18.6114 27.0311C18.6988 27.1366 18.7194 27.2307 18.7138 27.365C18.6914 27.4705 18.6368 27.5146 18.5514 27.5744C18.436 27.5889 18.3341 27.5709 18.2214 27.5442C18.2127 27.5616 18.2039 27.5791 18.1949 27.597C18.0958 27.7777 18.0958 27.7777 17.9852 27.814C17.8666 27.7782 17.8171 27.7198 17.7357 27.6288C17.681 27.574 17.6341 27.5455 17.5652 27.5121C17.4714 27.4537 17.4714 27.4537 17.4433 27.3556C17.4427 27.3282 17.442 27.3008 17.4414 27.2725C17.4788 27.2435 17.5163 27.2146 17.5539 27.1858C17.5852 27.1616 17.5852 27.1616 17.6172 27.1369C17.703 27.0761 17.7744 27.0357 17.8783 27.0178C17.9024 27.0222 17.9265 27.0266 17.9514 27.0311C18.002 27.1065 18.002 27.1065 18.0414 27.182C18.0612 27.182 18.081 27.182 18.1014 27.182C18.1097 27.1627 18.118 27.1435 18.1266 27.1236C18.1375 27.0987 18.1483 27.0737 18.1595 27.048C18.1703 27.0232 18.1811 26.9983 18.1922 26.9727C18.2214 26.9103 18.2214 26.9103 18.2514 26.8801Z" fill="#9810FA"/>
<path d="M74.9323 20.2458C75.0689 20.318 75.1742 20.3948 75.2605 20.525C75.2842 20.7362 75.2842 20.7362 75.1911 20.8551C75.0377 20.9736 74.8766 20.965 74.6905 20.9476C74.4879 20.896 74.3232 20.7995 74.1805 20.6457C74.1326 20.5493 74.1352 20.4485 74.1505 20.3439C74.3178 20.1174 74.6953 20.1432 74.9323 20.2458Z" fill="#9810FA"/>
<path d="M79.4037 9.61243C79.4994 9.68413 79.4994 9.68413 79.5537 9.76336C79.5575 9.85581 79.5575 9.85581 79.5237 9.94448C79.4225 10.0524 79.3096 10.109 79.1637 10.1256C79.0327 10.1239 78.9039 10.1098 78.7737 10.0954C78.7315 10.0919 78.6893 10.0884 78.6471 10.085C78.6043 10.081 78.5615 10.0769 78.5187 10.0728C78.4795 10.0692 78.4402 10.0656 78.3997 10.0619C78.2729 10.0298 78.2235 9.98695 78.1437 9.88411C78.1344 9.78412 78.1344 9.78412 78.1437 9.70299C78.3078 9.63806 78.4691 9.58655 78.6406 9.5464C78.6621 9.54105 78.6836 9.5357 78.7057 9.53019C78.9671 9.46822 79.1647 9.48791 79.4037 9.61243Z" fill="#9810FA"/>
<path d="M67.0541 12.8927C67.1498 12.9644 67.1498 12.9644 67.2041 13.0436C67.2079 13.1361 67.2079 13.1361 67.1741 13.2248C67.0728 13.3327 66.96 13.3893 66.8141 13.4059C66.6831 13.4042 66.5543 13.3901 66.4241 13.3757C66.3819 13.3722 66.3397 13.3687 66.2975 13.3653C66.2547 13.3613 66.2119 13.3572 66.1691 13.353C66.1298 13.3495 66.0906 13.3459 66.0501 13.3422C65.9233 13.31 65.8739 13.2672 65.7941 13.1644C65.7848 13.0644 65.7848 13.0644 65.7941 12.9833C65.9582 12.9183 66.1194 12.8668 66.291 12.8267C66.3125 12.8213 66.334 12.816 66.3561 12.8105C66.6174 12.7485 66.8151 12.7682 67.0541 12.8927Z" fill="#9810FA"/>
<path d="M76.7554 24.1542C77.0733 24.1542 77.35 24.2261 77.6458 24.3387C77.699 24.359 77.7522 24.3792 77.8054 24.3995C77.8327 24.4099 77.86 24.4204 77.8882 24.4312C78.1253 24.5191 78.3654 24.5776 78.6117 24.6334C78.9113 24.7017 79.1957 24.7703 79.4517 24.9485C79.4665 24.9783 79.4665 24.9783 79.4817 25.0088C79.2452 25.0211 79.0327 24.9855 78.8029 24.9315C78.7675 24.9233 78.7321 24.9152 78.6957 24.9068C78.1646 24.7817 77.6492 24.6237 77.1396 24.428C77.1098 24.4167 77.0799 24.4054 77.0492 24.3938C77.0228 24.3836 76.9965 24.3734 76.9693 24.3629C76.8975 24.3369 76.8975 24.3369 76.8117 24.3749C76.8018 24.4048 76.7919 24.4347 76.7817 24.4655C76.5902 24.4473 76.5902 24.4473 76.5135 24.3976C76.4705 24.3263 76.4731 24.2756 76.4817 24.1938C76.5438 24.1313 76.6703 24.1549 76.7554 24.1542Z" fill="#9810FA"/>
<path d="M67.2834 2.00563C67.3877 2.06621 67.4545 2.12996 67.4934 2.24712C67.5156 2.45342 67.4963 2.62021 67.3734 2.79046C67.2635 2.90652 67.1641 2.96466 67.004 2.98289C66.8573 2.96788 66.8162 2.92416 66.7134 2.82065C66.6464 2.6859 66.6625 2.49955 66.7039 2.35796C66.77 2.21331 66.8545 2.12683 66.9834 2.03582C67.0929 1.99906 67.1681 1.99384 67.2834 2.00563Z" fill="#9810FA"/>
<path d="M56.1271 15.6089C56.2315 15.6695 56.2983 15.7332 56.3371 15.8504C56.3593 16.0567 56.3401 16.2235 56.2171 16.3937C56.1072 16.5098 56.0078 16.5679 55.8477 16.5862C55.701 16.5712 55.66 16.5274 55.5571 16.4239C55.4901 16.2892 55.5063 16.1028 55.5476 15.9612C55.6137 15.8166 55.6983 15.7301 55.8271 15.6391C55.9367 15.6023 56.0118 15.5971 56.1271 15.6089Z" fill="#9810FA"/>
<path d="M71.0226 29.0236C71.2383 29.104 71.3888 29.2472 71.5026 29.4462C71.5584 29.5708 71.571 29.6467 71.5326 29.7782C71.3588 29.8089 71.2488 29.8073 71.0826 29.748C71.0881 29.7723 71.0937 29.7966 71.0995 29.8216C71.1038 29.8471 71.1081 29.8727 71.1126 29.899C71.0826 29.9292 71.0826 29.9292 71.0282 29.9332C71.0065 29.9331 70.9849 29.933 70.9626 29.9329C70.9409 29.933 70.9193 29.9331 70.897 29.9332C70.8426 29.9292 70.8426 29.9292 70.8126 29.899C70.8102 29.8531 70.8084 29.8072 70.807 29.7612C70.7939 29.6077 70.7458 29.5247 70.6468 29.4096C70.5802 29.3282 70.5456 29.2605 70.5332 29.1556C70.5363 29.132 70.5394 29.1083 70.5426 29.084C70.6909 28.9845 70.8497 29.0014 71.0226 29.0236Z" fill="#9810FA"/>
<path d="M64.0655 34.4047C64.2813 34.4851 64.4318 34.6283 64.5455 34.8273C64.6014 34.9519 64.614 35.0278 64.5755 35.1593C64.4018 35.19 64.2918 35.1884 64.1255 35.1291C64.1311 35.1534 64.1367 35.1777 64.1424 35.2027C64.1468 35.2282 64.1511 35.2538 64.1555 35.2801C64.1255 35.3103 64.1255 35.3103 64.0712 35.3143C64.0495 35.3142 64.0279 35.3141 64.0055 35.314C63.9839 35.3141 63.9622 35.3142 63.9399 35.3143C63.8855 35.3103 63.8855 35.3103 63.8555 35.2801C63.8531 35.2342 63.8514 35.1883 63.8499 35.1424C63.8368 34.9888 63.7888 34.9058 63.6897 34.7907C63.6231 34.7093 63.5886 34.6416 63.5762 34.5367C63.5793 34.5131 63.5824 34.4894 63.5855 34.4651C63.7339 34.3656 63.8926 34.3825 64.0655 34.4047Z" fill="#9810FA"/>
<path d="M29.0795 8.09756C29.2175 8.17188 29.2956 8.28393 29.3495 8.4296C29.3953 8.60471 29.3808 8.72096 29.2895 8.88239C29.2328 8.95044 29.1948 8.96906 29.1081 8.98238C28.9887 8.98883 28.9117 8.97862 28.802 8.92767C28.6458 8.78475 28.5613 8.65743 28.5508 8.44092C28.5559 8.32912 28.5695 8.25757 28.6389 8.16925C28.7786 8.04505 28.9063 8.05435 29.0795 8.09756Z" fill="#9810FA"/>
<path d="M40.7383 0.304688C40.8483 0.306093 40.8748 0.311509 40.9671 0.380152C41.1316 0.604139 41.1504 0.797402 41.1208 1.07065C41.0783 1.18728 41.0138 1.24307 40.9108 1.31214C40.7834 1.30976 40.7188 1.29634 40.6183 1.21592C40.4651 1.02322 40.4452 0.868464 40.4498 0.626944C40.4702 0.442141 40.5474 0.312954 40.7383 0.304688Z" fill="#9810FA"/>
<path d="M17.6329 14.4262C17.7953 14.5079 17.8868 14.6261 17.991 14.7733C18.0031 14.7902 18.0151 14.807 18.0276 14.8244C18.0958 14.9255 18.1344 14.9978 18.1129 15.1205C18.0019 15.2353 17.9106 15.2506 17.7529 15.2563C17.5562 15.2492 17.46 15.1917 17.3254 15.0488C17.2432 14.9248 17.2129 14.8303 17.2129 14.6809C17.2739 14.4699 17.4224 14.389 17.6329 14.4262Z" fill="#9810FA"/>
<path d="M5.26542 19.4131C5.40103 19.4873 5.49212 19.5864 5.56167 19.7263C5.57909 19.8701 5.59112 19.988 5.50354 20.1074C5.37746 20.1644 5.27753 20.1752 5.14167 20.1489C4.975 20.0784 4.84918 19.9685 4.75166 19.8169C4.71458 19.6992 4.70952 19.605 4.75729 19.4886C4.89572 19.3253 5.07745 19.3275 5.26542 19.4131Z" fill="#9810FA"/>
<path d="M73.3069 35.2972C73.5746 35.3666 73.7972 35.4718 73.9478 35.7152C74.0129 35.8675 74.0678 36.001 74.0678 36.168C73.9299 36.2022 73.845 36.22 73.7138 36.1595C73.6286 36.1055 73.548 36.0483 73.4678 35.9869C73.4469 35.9714 73.426 35.9559 73.4044 35.9399C73.2787 35.8399 73.2024 35.7426 73.1378 35.5945C73.117 35.4147 73.117 35.4147 73.173 35.33C73.2278 35.2926 73.2278 35.2926 73.3069 35.2972Z" fill="#9810FA"/>
<path d="M46.4524 10.125C46.5587 10.1924 46.6147 10.2508 46.6624 10.3665C46.6859 10.5352 46.6703 10.6766 46.5724 10.8193C46.4701 10.9076 46.377 10.9263 46.2422 10.9202C46.1382 10.9021 46.0798 10.8597 46.0024 10.7891C45.9154 10.6449 45.8996 10.5317 45.9252 10.369C45.9591 10.2453 46.0234 10.1792 46.1299 10.1137C46.2438 10.0876 46.34 10.0932 46.4524 10.125Z" fill="#9810FA"/>
<path d="M38.6634 15.1777C38.7696 15.2451 38.8256 15.3035 38.8734 15.4192C38.8968 15.5879 38.8813 15.7293 38.7834 15.872C38.681 15.9603 38.588 15.9791 38.4531 15.9729C38.3491 15.9549 38.2907 15.9124 38.2134 15.8418C38.1263 15.6977 38.1105 15.5845 38.1361 15.4217C38.17 15.2981 38.2343 15.2319 38.3409 15.1664C38.4548 15.1404 38.551 15.1459 38.6634 15.1777Z" fill="#9810FA"/>
<path d="M61.647 34.417C61.9609 34.4561 62.217 34.7429 62.4055 34.9783C62.544 35.1593 62.6704 35.3322 62.697 35.5641C62.667 35.5942 62.667 35.5942 62.5788 35.5961C62.4051 35.5685 62.2834 35.4366 62.157 35.3226C62.1384 35.3063 62.1198 35.2901 62.1006 35.2734C61.9175 35.1029 61.6294 34.7777 61.6113 34.517C61.617 34.4472 61.617 34.4472 61.647 34.417Z" fill="#9810FA"/>
<path d="M1.97345 21.3779C2.09867 21.4369 2.19192 21.5042 2.26056 21.6279C2.27743 21.7354 2.27743 21.7354 2.26056 21.8392C2.18155 21.9203 2.13094 21.9564 2.01903 21.976C1.76333 21.9735 1.5933 21.947 1.40556 21.7675C1.35022 21.6701 1.34186 21.6177 1.36056 21.5072C1.5147 21.3159 1.74649 21.3104 1.97345 21.3779Z" fill="#9810FA"/>
<path d="M50.953 9.00817C51.057 9.05005 51.0947 9.08635 51.1573 9.17986C51.2142 9.33939 51.2133 9.46105 51.1592 9.62132C51.0886 9.72323 51.0406 9.75505 50.923 9.793C50.7835 9.80208 50.7044 9.78024 50.5948 9.69113C50.5 9.56973 50.4928 9.46772 50.4943 9.31876C50.5076 9.21253 50.555 9.14866 50.623 9.06855C50.7345 8.99373 50.8237 8.99214 50.953 9.00817Z" fill="#9810FA"/>
<path d="M45.1971 14.7235C45.3012 14.7654 45.3388 14.8017 45.4015 14.8952C45.4583 15.0547 45.4575 15.1764 45.4034 15.3367C45.3327 15.4386 45.2847 15.4704 45.1671 15.5083C45.0277 15.5174 44.9485 15.4956 44.839 15.4065C44.7442 15.2851 44.737 15.1831 44.7384 15.0341C44.7518 14.9279 44.7991 14.864 44.8671 14.7839C44.9786 14.7091 45.0679 14.7075 45.1971 14.7235Z" fill="#9810FA"/>
<path d="M7.44383 29.5505C7.50945 29.5619 7.50945 29.5619 7.53945 29.592C7.55234 29.6735 7.55234 29.6735 7.53945 29.7732C7.48188 29.8404 7.42996 29.8923 7.3632 29.9486C7.3454 29.9643 7.32759 29.9801 7.30925 29.9963C7.27313 30.0282 7.23683 30.0599 7.20036 30.0913C7.13169 30.1508 7.06465 30.2119 6.99758 30.2731C6.97395 30.2944 6.95032 30.3157 6.92598 30.3376C6.86872 30.3896 6.81179 30.4418 6.75512 30.4944C6.73901 30.5094 6.72291 30.5243 6.70632 30.5397C6.67508 30.5687 6.64388 30.5978 6.61273 30.6269C6.4501 30.7779 6.4501 30.7779 6.36945 30.8297C6.28695 30.8202 6.28695 30.8202 6.21945 30.7995C6.19508 30.7334 6.19508 30.7334 6.18945 30.6485C6.24945 30.5769 6.24945 30.5769 6.33945 30.4976C6.37277 30.4638 6.40589 30.4299 6.43883 30.3957C6.52855 30.3055 6.62209 30.2214 6.7182 30.1381C6.82647 30.0422 6.93177 29.9432 7.03714 29.8441C7.3353 29.5651 7.3353 29.5651 7.44383 29.5505Z" fill="#9810FA"/>
<path d="M69.6107 28.7518C69.7476 28.7997 69.8678 28.8596 69.9707 28.9631C69.9973 29.0308 69.9973 29.0308 70.0213 29.1103C70.0295 29.1364 70.0376 29.1624 70.0461 29.1893C70.0612 29.2676 70.0564 29.3112 70.0307 29.3857C69.8291 29.4401 69.6989 29.4034 69.5132 29.3216C69.4927 29.3127 69.4721 29.3038 69.4509 29.2946C69.3199 29.2336 69.2261 29.1656 69.1307 29.0537C69.0982 28.9644 69.093 28.9242 69.1251 28.8349C69.2229 28.6898 69.4584 28.736 69.6107 28.7518Z" fill="#9810FA"/>
<path d="M62.6537 34.1329C62.7906 34.1808 62.9108 34.2407 63.0137 34.3442C63.0403 34.4119 63.0403 34.4119 63.0643 34.4914C63.0725 34.5175 63.0806 34.5435 63.089 34.5704C63.1042 34.6487 63.0993 34.6923 63.0737 34.7668C62.8721 34.8212 62.7419 34.7845 62.5562 34.7027C62.5356 34.6938 62.5151 34.6849 62.4939 34.6757C62.3629 34.6147 62.2691 34.5467 62.1737 34.4348C62.1412 34.3455 62.136 34.3053 62.168 34.216C62.2659 34.0709 62.5014 34.1171 62.6537 34.1329Z" fill="#9810FA"/>
<path d="M54.3496 9.15137C54.4342 9.20635 54.4847 9.24214 54.5296 9.33249C54.545 9.456 54.5579 9.5811 54.4982 9.69342C54.4262 9.78093 54.3677 9.83955 54.2544 9.8539C54.0199 9.8632 54.0199 9.8632 53.9127 9.77395C53.8072 9.65957 53.796 9.58702 53.7969 9.43495C53.8186 9.31093 53.8945 9.22956 53.9896 9.15137C54.1148 9.10938 54.2218 9.1216 54.3496 9.15137Z" fill="#9810FA"/>
<path d="M45.5937 16.8982C45.6783 16.9532 45.7288 16.989 45.7737 17.0793C45.7892 17.2028 45.802 17.3279 45.7423 17.4402C45.6704 17.5278 45.6118 17.5864 45.4986 17.6007C45.2641 17.61 45.2641 17.61 45.1569 17.5208C45.0513 17.4064 45.0401 17.3338 45.0411 17.1818C45.0628 17.0578 45.1387 16.9764 45.2337 16.8982C45.3589 16.8562 45.4659 16.8684 45.5937 16.8982Z" fill="#9810FA"/>
<path d="M64.7808 27.6651C64.8138 27.6698 64.8469 27.6744 64.8809 27.6792C65.0503 27.709 65.174 27.7323 65.2833 27.8727C65.3371 27.9615 65.3808 28.042 65.3808 28.1481C65.3208 28.2387 65.3208 28.2387 65.24 28.2581C64.9965 28.2701 64.8427 28.228 64.6364 28.1009C64.6155 28.0883 64.5945 28.0757 64.5729 28.0628C64.4643 27.9903 64.4266 27.9555 64.3867 27.8266C64.3908 27.7255 64.3908 27.7255 64.4257 27.6668C64.5369 27.6025 64.6598 27.6447 64.7808 27.6651Z" fill="#9810FA"/>
<path d="M21.9688 9.77954C22.1991 9.78044 22.3498 9.8225 22.5208 9.98176C22.6121 10.0895 22.6357 10.1707 22.6408 10.3138C22.6057 10.3798 22.6057 10.3798 22.5508 10.4345C22.3705 10.4744 22.191 10.445 22.0325 10.352C21.9173 10.2669 21.846 10.1795 21.8008 10.0402C21.8008 9.90824 21.8359 9.81549 21.9688 9.77954Z" fill="#9810FA"/>
<path d="M82.0296 25.5203C82.3899 25.5451 82.7233 25.6755 83.0552 25.8106C83.0761 25.819 83.097 25.8275 83.1186 25.8362C83.247 25.8901 83.363 25.9465 83.4714 26.0351C83.4714 26.0749 83.4714 26.1148 83.4714 26.1558C83.2165 26.1452 82.9938 26.1006 82.7533 26.0162C82.722 26.0055 82.6908 25.9947 82.6586 25.9836C82.0605 25.772 82.0605 25.772 81.9618 25.6063C81.9551 25.5884 81.9483 25.5705 81.9414 25.5521C81.9714 25.5219 81.9714 25.5219 82.0296 25.5203Z" fill="#9810FA"/>
<path d="M5.31961 31.5238C5.34961 31.5539 5.34961 31.5539 5.35336 31.6078C5.34187 31.8185 5.26204 31.927 5.10961 32.0671C4.97071 32.1831 4.86672 32.2151 4.68961 32.218C4.62773 32.1878 4.62773 32.1878 4.59961 32.1275C4.60315 31.9388 4.66716 31.8176 4.79895 31.6857C4.97145 31.5295 5.08365 31.4735 5.31961 31.5238Z" fill="#9810FA"/>
<path d="M77.3102 10.3085C77.4196 10.3861 77.4478 10.4491 77.4827 10.5783C77.4602 10.6955 77.4282 10.7769 77.3327 10.85C77.221 10.8874 77.1186 10.8967 77.0027 10.8802C76.8377 10.7896 76.8377 10.7896 76.7927 10.699C76.7716 10.4837 76.7716 10.4837 76.8639 10.3689C77.0101 10.2533 77.1326 10.2501 77.3102 10.3085Z" fill="#9810FA"/>
<path d="M64.9605 13.5888C65.07 13.6664 65.0982 13.7293 65.133 13.8586C65.1106 13.9758 65.0786 14.0572 64.983 14.1302C64.8714 14.1677 64.769 14.1769 64.653 14.1604C64.488 14.0699 64.488 14.0699 64.443 13.9793C64.422 13.764 64.422 13.764 64.5143 13.6492C64.6604 13.5336 64.7829 13.5304 64.9605 13.5888Z" fill="#9810FA"/>
<path d="M19.2704 29.7429C19.353 29.7971 19.4062 29.8351 19.4504 29.924C19.4636 30.0403 19.4548 30.0969 19.3998 30.2014C19.3054 30.317 19.2381 30.3709 19.0886 30.3863C19.0017 30.377 18.9522 30.3655 18.8804 30.3165C18.8063 30.2045 18.8004 30.1142 18.8204 29.9844C18.8692 29.8899 18.9105 29.8261 18.9948 29.7618C19.0921 29.7338 19.1697 29.7323 19.2704 29.7429Z" fill="#9810FA"/>
<path d="M28.4794 28.3018C28.562 28.356 28.6152 28.3939 28.6594 28.4829C28.6725 28.5991 28.6638 28.6557 28.6088 28.7602C28.5143 28.8758 28.447 28.9297 28.2975 28.9451C28.2106 28.9358 28.1612 28.9243 28.0894 28.8753C28.0152 28.7633 28.0094 28.6731 28.0294 28.5432C28.0781 28.4487 28.1195 28.385 28.2038 28.3206C28.3011 28.2927 28.3787 28.2911 28.4794 28.3018Z" fill="#9810FA"/>
<path d="M63.7036 28.6531C63.8343 28.7133 63.9258 28.7758 64.0009 28.9028C64.0291 28.9952 64.0291 28.9952 64.0309 29.0839C63.996 29.1489 63.996 29.1489 63.9409 29.2047C63.7866 29.2378 63.6476 29.2235 63.5078 29.1518C63.4824 29.1294 63.4571 29.107 63.4309 29.0839C63.4074 29.0665 63.3839 29.049 63.3597 29.0311C63.2828 28.924 63.2945 28.852 63.3109 28.7217C63.4097 28.5945 63.5604 28.6029 63.7036 28.6531Z" fill="#9810FA"/>
<path d="M56.7466 34.0342C56.8772 34.0944 56.9688 34.1569 57.0439 34.2839C57.072 34.3763 57.072 34.3763 57.0739 34.465C57.039 34.53 57.039 34.53 56.9839 34.5858C56.8296 34.6189 56.6906 34.6046 56.5508 34.5329C56.5254 34.5105 56.5 34.4881 56.4739 34.465C56.4504 34.4476 56.4269 34.4301 56.4027 34.4122C56.3258 34.3051 56.3374 34.2331 56.3539 34.1028C56.4527 33.9756 56.6033 33.984 56.7466 34.0342Z" fill="#9810FA"/>
<path d="M62.7409 30.8347C62.9193 30.8198 63.0425 30.8527 63.1909 30.9555C63.2887 31.0507 63.3661 31.1426 63.3784 31.2818C63.3697 31.3933 63.3561 31.4461 63.2809 31.529C63.1502 31.5538 63.0904 31.5411 62.9772 31.4705C62.8155 31.3165 62.72 31.118 62.7109 30.8951C62.7208 30.8752 62.7307 30.8552 62.7409 30.8347Z" fill="#9810FA"/>
<path d="M54.2097 26.0034C54.3881 25.9885 54.5112 26.0214 54.6597 26.1242C54.7575 26.2194 54.8349 26.3113 54.8472 26.4505C54.8385 26.562 54.8248 26.6148 54.7497 26.6977C54.6189 26.7225 54.5591 26.7098 54.4459 26.6392C54.2842 26.4852 54.1887 26.2867 54.1797 26.0638C54.1896 26.0439 54.1995 26.0239 54.2097 26.0034Z" fill="#9810FA"/>
<path d="M44.9817 12.2001C45.0867 12.2673 45.1451 12.3264 45.1917 12.4416C45.2118 12.5861 45.2101 12.7064 45.1448 12.8378C45.0717 12.8944 45.0717 12.8944 44.9686 12.9114C44.8456 12.8918 44.7977 12.8627 44.7117 12.7737C44.6308 12.6392 44.6279 12.504 44.6517 12.351C44.7438 12.2147 44.8187 12.1694 44.9817 12.2001Z" fill="#9810FA"/>
<path d="M37.2473 17.0353C37.3523 17.1025 37.4107 17.1617 37.4573 17.2768C37.4774 17.4213 37.4757 17.5416 37.4104 17.673C37.3373 17.7296 37.3373 17.7296 37.2342 17.7466C37.1112 17.727 37.0634 17.6979 36.9773 17.6089C36.8964 17.4744 36.8935 17.3392 36.9173 17.1863C37.0094 17.0499 37.0843 17.0046 37.2473 17.0353Z" fill="#9810FA"/>
<path d="M67.812 28.9631C67.9471 29.0385 68.0536 29.1179 68.112 29.2649C68.1215 29.3586 68.1268 29.4197 68.0801 29.5026C67.9862 29.5575 67.9191 29.5489 67.812 29.5366C67.638 29.4778 67.5195 29.391 67.422 29.2347C67.4047 29.1206 67.3973 29.0581 67.4651 28.9631C67.5864 28.9154 67.6882 28.9259 67.812 28.9631Z" fill="#9810FA"/>
<path d="M60.855 34.3442C60.99 34.4196 61.0965 34.499 61.155 34.646C61.1645 34.7397 61.1698 34.8009 61.1231 34.8837C61.0292 34.9386 60.9621 34.93 60.855 34.9177C60.681 34.8589 60.5624 34.7721 60.465 34.6158C60.4477 34.5017 60.4402 34.4392 60.5081 34.3442C60.6294 34.2965 60.7311 34.307 60.855 34.3442Z" fill="#9810FA"/>
<path d="M82.1211 23.6807C82.4123 23.7479 82.6964 23.8347 82.9808 23.9262C83.0319 23.9425 83.0831 23.9586 83.1344 23.9746C83.2091 23.9978 83.2836 24.0216 83.358 24.0456C83.381 24.0526 83.404 24.0596 83.4277 24.0669C83.4915 24.0879 83.4915 24.0879 83.5911 24.1335C83.6161 24.1929 83.6161 24.1929 83.6211 24.2542C83.5611 24.3146 83.5611 24.3146 83.5067 24.3192C83.3732 24.306 83.2762 24.2807 83.1598 24.2127C82.9897 24.1185 82.8148 24.0992 82.6244 24.078C82.4137 24.052 82.2577 23.9705 82.1211 23.8014C82.1211 23.7616 82.1211 23.7217 82.1211 23.6807Z" fill="#9810FA"/>
<path d="M18.1728 17.1429C18.2834 17.1842 18.3645 17.2417 18.4409 17.3335C18.4819 17.4376 18.4851 17.5148 18.4728 17.6259C18.4255 17.7052 18.388 17.7148 18.3003 17.7429C18.1386 17.7491 18.033 17.6868 17.9066 17.59C17.8189 17.4733 17.8105 17.4099 17.8128 17.2637C17.895 17.1198 18.0215 17.1148 18.1728 17.1429Z" fill="#9810FA"/>
<path d="M75.8207 24.2843C75.921 24.3233 76.0107 24.365 76.0607 24.4655C76.0746 24.6577 76.0746 24.6577 76.0194 24.7334C75.892 24.8221 75.761 24.8107 75.6107 24.7975C75.4873 24.7509 75.4439 24.727 75.3707 24.6164C75.3551 24.4932 75.3505 24.4315 75.4269 24.3315C75.5602 24.2644 75.6743 24.261 75.8207 24.2843Z" fill="#9810FA"/>
<path d="M65.6967 42.688C65.889 42.6919 66.0116 42.7628 66.1467 42.8993C66.2579 43.0515 66.3148 43.1943 66.3267 43.3823C66.2367 43.4426 66.2367 43.4426 66.1392 43.4445C65.9392 43.3875 65.8338 43.2394 65.7286 43.0653C65.6645 42.9419 65.6496 42.8558 65.6667 42.7182C65.6766 42.7082 65.6865 42.6983 65.6967 42.688Z" fill="#9810FA"/>
<path d="M30.6102 4.71683C30.7339 4.80063 30.8152 4.87069 30.8502 5.01869C30.8591 5.14541 30.8637 5.24388 30.7902 5.35074C30.6957 5.39826 30.6246 5.39143 30.5202 5.38092C30.4131 5.31176 30.3541 5.25792 30.2971 5.14321C30.2711 4.99788 30.276 4.88735 30.3608 4.764C30.4541 4.70058 30.4995 4.69678 30.6102 4.71683Z" fill="#9810FA"/>
<path d="M13.2841 11.8409C13.346 11.8957 13.4044 11.9529 13.4627 12.0114C13.5024 12.0464 13.5424 12.081 13.5827 12.1152C13.6124 12.1407 13.6421 12.1662 13.6727 12.1925C13.6628 12.2423 13.6529 12.2921 13.6427 12.3435C13.1086 12.3096 13.1086 12.3096 12.9442 12.1606C12.8878 12.0919 12.84 12.0318 12.8027 11.951C12.8126 11.8821 12.8126 11.8821 12.8327 11.8303C13.1486 11.7508 13.1486 11.7508 13.2841 11.8409Z" fill="#9810FA"/>
<path d="M27.1597 35.9008C27.2328 35.9347 27.2328 35.9347 27.2797 35.9913C27.319 36.1073 27.3117 36.1659 27.2759 36.2838C27.2143 36.3933 27.1858 36.4302 27.0697 36.4743C26.9516 36.4933 26.8593 36.4942 26.7566 36.4253C26.6981 36.3359 26.6818 36.2797 26.6797 36.1725C26.7166 36.0673 26.7511 36.0074 26.8353 35.9347C26.9537 35.8871 27.0321 35.8886 27.1597 35.9008Z" fill="#9810FA"/>
<path d="M36.3687 34.4596C36.4418 34.4936 36.4418 34.4936 36.4887 34.5502C36.528 34.6662 36.5207 34.7247 36.4849 34.8426C36.4233 34.9522 36.3948 34.989 36.2787 35.0332C36.1606 35.0521 36.0682 35.053 35.9655 34.9841C35.9071 34.8947 35.8908 34.8385 35.8887 34.7313C35.9256 34.6261 35.9601 34.5662 36.0443 34.4936C36.1627 34.446 36.2411 34.4474 36.3687 34.4596Z" fill="#9810FA"/>
<path d="M37.3179 33.0439C37.391 33.0778 37.391 33.0778 37.4379 33.1344C37.4772 33.2504 37.4699 33.309 37.4341 33.4268C37.3725 33.5364 37.344 33.5733 37.2279 33.6174C37.1098 33.6363 37.0175 33.6372 36.9148 33.5683C36.8563 33.4789 36.84 33.4228 36.8379 33.3155C36.8748 33.2103 36.9093 33.1504 36.9935 33.0778C37.1119 33.0302 37.1903 33.0316 37.3179 33.0439Z" fill="#9810FA"/>
<path d="M40.0345 27.523C40.1074 27.5795 40.1437 27.6221 40.1845 27.7042C40.2024 27.8632 40.1621 27.9422 40.0645 28.0664C39.9675 28.1152 39.8693 28.1139 39.7645 28.0966C39.6751 28.0367 39.6256 27.9949 39.6012 27.8872C39.5945 27.7712 39.6075 27.7151 39.6707 27.6155C39.7794 27.5093 39.8875 27.5011 40.0345 27.523Z" fill="#9810FA"/>
<path d="M33.5387 31.7588C33.65 31.821 33.6823 31.8578 33.7187 31.9814C33.7187 32.1087 33.7014 32.1681 33.6287 32.2719C33.5197 32.3517 33.4721 32.3661 33.338 32.3455C33.1951 32.2831 33.1951 32.2831 33.1487 32.1814C33.1324 32.0316 33.1443 31.9378 33.2387 31.8192C33.3349 31.749 33.4221 31.7444 33.5387 31.7588Z" fill="#9810FA"/>
<path d="M42.7476 30.3176C42.859 30.3799 42.8913 30.4166 42.9276 30.5402C42.9276 30.6675 42.9104 30.7269 42.8376 30.8308C42.7286 30.9105 42.6811 30.9249 42.547 30.9044C42.4041 30.8419 42.4041 30.8419 42.3576 30.7402C42.3414 30.5905 42.3533 30.4967 42.4476 30.378C42.5439 30.3078 42.6311 30.3033 42.7476 30.3176Z" fill="#9810FA"/>
<path d="M42.568 29.5725C42.6793 29.6347 42.7116 29.6715 42.748 29.7951C42.748 29.9224 42.7307 29.9818 42.658 30.0857C42.549 30.1654 42.5014 30.1798 42.3673 30.1592C42.2244 30.0968 42.2244 30.0968 42.178 29.9951C42.1617 29.8453 42.1736 29.7516 42.268 29.6329C42.3642 29.5627 42.4514 29.5581 42.568 29.5725Z" fill="#9810FA"/>
<path d="M66.1323 25.9747C66.2103 26.0531 66.2113 26.1074 66.2223 26.2161C66.2124 26.246 66.2025 26.2759 66.1923 26.3067C65.9707 26.3914 65.7357 26.3726 65.5023 26.3671C65.4393 26.1966 65.4393 26.1966 65.4667 26.1011C65.5023 26.035 65.5023 26.035 65.5323 26.0048C65.7292 25.9712 65.9331 25.9565 66.1323 25.9747Z" fill="#9810FA"/>
<path d="M66.5514 23.2279C66.6567 23.3131 66.7534 23.4051 66.7708 23.5448C66.7614 23.6203 66.7614 23.6203 66.7258 23.6712C66.6047 23.7594 66.4903 23.7907 66.3414 23.7712C66.2527 23.6883 66.2193 23.5862 66.1914 23.4693C66.197 23.3712 66.197 23.3712 66.2214 23.2882C66.3316 23.2143 66.4234 23.2027 66.5514 23.2279Z" fill="#9810FA"/>
<path d="M76.1518 32.5553C76.2781 32.6271 76.3713 32.7054 76.4518 32.8269C76.4612 32.9043 76.4612 32.9043 76.4518 32.9779C76.3401 33.0528 76.2926 33.0442 76.1643 33.0263C76.008 32.9869 75.8915 32.9041 75.788 32.7817C75.7618 32.7062 75.7618 32.7062 75.7824 32.6232C75.8655 32.4799 76.0103 32.5179 76.1518 32.5553Z" fill="#9810FA"/>
<path d="M27.7597 15.2988C27.9314 15.3043 28.1045 15.389 28.2266 15.5091C28.2771 15.5785 28.301 15.6273 28.2941 15.7139C28.2697 15.7648 28.2697 15.7648 28.2397 15.795C28.0688 15.8138 27.9361 15.8015 27.7897 15.7044C27.7053 15.6252 27.7053 15.6252 27.6397 15.5535C27.6298 15.5436 27.6199 15.5336 27.6097 15.5233C27.6041 15.4498 27.6041 15.4498 27.6097 15.3724C27.6697 15.312 27.6697 15.312 27.7597 15.2988Z" fill="#9810FA"/>
<path d="M69.6584 38.8242C69.8298 38.8242 69.9155 38.8796 70.0369 38.9911C70.1342 39.0954 70.1105 39.2013 70.1084 39.3374C70.0446 39.3751 70.0446 39.3751 69.9584 39.3977C69.8684 39.3487 69.8684 39.3487 69.7784 39.277C69.7511 39.2571 69.7239 39.2372 69.6959 39.2166C69.6286 39.1565 69.5943 39.1217 69.5684 39.0355C69.5779 38.9344 69.5861 38.8969 69.6584 38.8242Z" fill="#9810FA"/>
<path d="M85.3524 29.6187C85.4526 29.6583 85.5394 29.7053 85.6316 29.7612C85.6649 29.7813 85.6981 29.8013 85.7324 29.8221C85.7494 29.8325 85.7664 29.8429 85.784 29.8536C85.8366 29.8858 85.8893 29.9176 85.9421 29.9494C86.132 30.0647 86.132 30.0647 86.2 30.1101C86.2 30.12 86.2 30.13 86.2 30.1402C85.8522 30.164 85.5631 30.0463 85.2684 29.8679C85.21 29.8082 85.21 29.8082 85.2012 29.7108C85.2041 29.6832 85.207 29.6555 85.21 29.6271C85.27 29.5969 85.27 29.5969 85.3524 29.6187Z" fill="#9810FA"/>
<path d="M22.1229 5.02768C22.204 5.08272 22.259 5.12049 22.3029 5.2088C22.3162 5.36626 22.3162 5.36626 22.271 5.44651C22.1777 5.50102 22.1087 5.4931 22.0029 5.48047C21.8367 5.38759 21.8367 5.38759 21.7929 5.29936C21.7758 5.11008 21.7758 5.11008 21.8397 5.02768C21.9461 4.98378 22.0126 4.99849 22.1229 5.02768Z" fill="#9810FA"/>
<path d="M6.43065 27.2427C6.49065 27.303 6.49065 27.303 6.49252 27.386C6.44793 27.5233 6.37202 27.591 6.25065 27.6653C6.1392 27.6957 6.07558 27.709 5.96752 27.6671C5.95205 27.6566 5.93659 27.646 5.92065 27.6351C5.91074 27.5279 5.91294 27.4678 5.96565 27.3728C6.09512 27.2523 6.2565 27.1757 6.43065 27.2427Z" fill="#9810FA"/>
<path d="M11.2138 13.6112C11.3152 13.685 11.3551 13.7351 11.3938 13.8546C11.3938 13.9433 11.3938 13.9433 11.3657 14.0149C11.2871 14.0773 11.2226 14.0808 11.124 14.076C11.031 14.0574 10.9787 14.0105 10.9138 13.9433C10.8719 13.8588 10.8763 13.7952 10.8838 13.7018C10.9504 13.5762 11.0889 13.5852 11.2138 13.6112Z" fill="#9810FA"/>
<path d="M20.7094 14.5244C20.8605 14.5477 20.9134 14.6386 21.0027 14.7568C21.0193 14.7772 21.036 14.7975 21.0531 14.8184C21.1703 14.969 21.1703 14.969 21.1669 15.081C21.1396 15.1436 21.1396 15.1436 21.1096 15.1738C21.0435 15.1871 21.0435 15.1871 20.9596 15.1738C20.8942 15.1139 20.8423 15.059 20.7871 14.9908C20.7649 14.9653 20.7649 14.9653 20.7422 14.9394C20.6436 14.8205 20.6051 14.7295 20.5996 14.57C20.6296 14.5399 20.6296 14.5399 20.7094 14.5244Z" fill="#9810FA"/>
<path d="M57.7406 0.00521176C57.8306 0.0655833 57.8306 0.0655833 57.8587 0.180666C57.8669 0.2772 57.8613 0.305698 57.8156 0.39574C57.7185 0.476358 57.6557 0.488184 57.5306 0.488184C57.4593 0.456112 57.4593 0.456112 57.4106 0.397627C57.38 0.296654 57.3754 0.235485 57.4031 0.133501C57.4841 -0.0132782 57.5883 -0.00572864 57.7406 0.00521176Z" fill="#9810FA"/>
<path d="M81.9433 7.96849C82.0333 8.01755 82.0333 8.01755 82.0933 8.08924C82.1102 8.18168 82.1102 8.18168 82.0933 8.27035C82.0483 8.32695 82.0483 8.32695 81.9733 8.36091C81.8334 8.37655 81.7669 8.37924 81.6433 8.31186C81.5833 8.24017 81.5833 8.24017 81.5664 8.14772C81.5833 8.05905 81.5833 8.05905 81.6283 8.00245C81.734 7.95458 81.8306 7.94852 81.9433 7.96849Z" fill="#9810FA"/>
<path d="M69.0624 14.0095C69.1524 14.0586 69.1524 14.0586 69.2124 14.1303C69.2293 14.2227 69.2293 14.2227 69.2124 14.3114C69.1674 14.368 69.1674 14.368 69.0924 14.4019C68.9525 14.4176 68.8861 14.4203 68.7624 14.3529C68.7024 14.2812 68.7024 14.2812 68.6855 14.1887C68.7024 14.1001 68.7024 14.1001 68.7474 14.0435C68.8531 13.9956 68.9498 13.9895 69.0624 14.0095Z" fill="#9810FA"/>
<path d="M37.0222 5.81714C37.1272 5.83223 37.1272 5.83223 37.1834 5.8794C37.2376 5.99762 37.259 6.10752 37.2322 6.23597C37.1872 6.28502 37.1872 6.28502 37.0859 6.3152C36.9772 6.3152 36.9772 6.3152 36.9059 6.27181C36.8401 6.16742 36.8214 6.07616 36.8272 5.95297C36.8722 5.83957 36.9015 5.83448 37.0222 5.81714Z" fill="#9810FA"/>
<path d="M30.569 14.3186C30.674 14.3337 30.674 14.3337 30.7303 14.3809C30.7845 14.4991 30.8059 14.609 30.779 14.7374C30.734 14.7865 30.734 14.7865 30.6328 14.8167C30.524 14.8167 30.524 14.8167 30.4528 14.7733C30.387 14.6689 30.3683 14.5776 30.374 14.4544C30.4191 14.341 30.4484 14.3359 30.569 14.3186Z" fill="#9810FA"/>
<path d="M69.6862 33.2097C69.8787 33.2176 69.9754 33.2809 70.1062 33.421C70.1805 33.5149 70.2234 33.5691 70.2337 33.6889C70.2313 33.7101 70.2288 33.7313 70.2262 33.7531C70.0347 33.7531 69.9418 33.6767 69.8051 33.5458C69.7349 33.469 69.6885 33.3998 69.6562 33.3003C69.6662 33.2704 69.676 33.2405 69.6862 33.2097Z" fill="#9810FA"/>
<path d="M59.7528 32.4326C59.8918 32.4736 59.9357 32.5231 60.0116 32.6458C60.0247 32.7439 60.0247 32.7439 60.0116 32.8269C59.9516 32.8873 59.9516 32.8873 59.8522 32.8986C59.7252 32.8856 59.6806 32.8561 59.5916 32.7665C59.5496 32.6821 59.554 32.6185 59.5616 32.5251C59.6131 32.4305 59.6452 32.4346 59.7528 32.4326Z" fill="#9810FA"/>
<path d="M51.2216 27.6013C51.3605 27.6423 51.4044 27.6918 51.4803 27.8145C51.4935 27.9126 51.4935 27.9126 51.4803 27.9956C51.4203 28.056 51.4203 28.056 51.321 28.0673C51.194 28.0543 51.1493 28.0248 51.0603 27.9352C51.0183 27.8508 51.0227 27.7872 51.0303 27.6938C51.0819 27.5992 51.1139 27.6033 51.2216 27.6013Z" fill="#9810FA"/>
<path d="M78.3422 22.8052C78.4616 22.8529 78.5104 22.878 78.5822 22.9864C78.5667 23.0925 78.5667 23.0925 78.5222 23.1373C78.3597 23.1549 78.2352 23.1513 78.1022 23.0467C78.0722 23.0166 78.0722 23.0166 78.0703 22.9241C78.0709 22.8948 78.0715 22.8656 78.0722 22.8354C78.1643 22.7891 78.2403 22.7984 78.3422 22.8052Z" fill="#9810FA"/>
<path d="M55.4984 7.95801C55.5805 7.98832 55.6127 8.00817 55.6559 8.0863C55.682 8.1827 55.6931 8.25112 55.6784 8.35042C55.5995 8.43201 55.5239 8.4936 55.4084 8.50135C55.3787 8.48143 55.349 8.46151 55.3184 8.44098C55.3345 8.25211 55.3592 8.09798 55.4984 7.95801Z" fill="#9810FA"/>
<path d="M6.13036 30.7995C6.12364 30.965 6.08544 31.058 5.97333 31.1804C5.89116 31.245 5.81216 31.2502 5.71036 31.2522C5.67413 31.1661 5.68002 31.1324 5.71223 31.0428C5.81755 30.8753 5.92081 30.7744 6.13036 30.7995Z" fill="#9810FA"/>
<path d="M70.403 10.6991C70.478 10.7519 70.478 10.7519 70.523 10.8199C70.523 10.8597 70.523 10.8996 70.523 10.9406C70.459 10.9478 70.395 10.9549 70.331 10.9619C70.2793 10.9678 70.2277 10.974 70.1761 10.9806C70.152 10.9836 70.1279 10.9866 70.103 10.9897C70.0808 10.9925 70.0585 10.9954 70.0355 10.9984C70.0182 10.9992 70.0009 11.0001 69.983 11.001C69.953 10.9708 69.953 10.9708 69.9512 10.8934C69.9518 10.8692 69.9524 10.8449 69.953 10.8199C70.1126 10.7129 70.2106 10.6737 70.403 10.6991Z" fill="#9810FA"/>
<path d="M56.2273 17.9933C56.3023 18.0461 56.3023 18.0461 56.3473 18.1141C56.3473 18.1539 56.3473 18.1937 56.3473 18.2348C56.2832 18.242 56.2192 18.2491 56.1552 18.2561C56.1035 18.262 56.0519 18.2682 56.0003 18.2748C55.9762 18.2778 55.9521 18.2808 55.9273 18.2838C55.905 18.2867 55.8827 18.2896 55.8598 18.2926C55.8424 18.2934 55.8251 18.2943 55.8073 18.2952C55.7773 18.265 55.7773 18.265 55.7754 18.1876C55.776 18.1633 55.7766 18.1391 55.7773 18.1141C55.9368 18.0071 56.0348 17.9679 56.2273 17.9933Z" fill="#9810FA"/>
<path d="M1.75178 27.5141C1.76168 27.544 1.77158 27.5739 1.78178 27.6047C1.68953 27.7397 1.60827 27.8197 1.45178 27.8764C1.33553 27.882 1.33553 27.882 1.24178 27.8764C1.23451 27.807 1.23451 27.807 1.24178 27.7254C1.29217 27.6721 1.29217 27.6721 1.35803 27.6273C1.3904 27.6047 1.3904 27.6047 1.42342 27.5816C1.53741 27.5088 1.6168 27.5116 1.75178 27.5141Z" fill="#9810FA"/>
<path d="M74.4213 17.4458C74.5958 17.4517 74.7048 17.4795 74.8413 17.5967C74.8676 17.6646 74.8676 17.6646 74.8713 17.7175C74.7598 17.7923 74.6706 17.7938 74.5413 17.7778C74.4532 17.7439 74.4532 17.7439 74.3913 17.6873C74.3632 17.5948 74.3632 17.5948 74.3613 17.5062C74.3811 17.4862 74.4009 17.4663 74.4213 17.4458Z" fill="#9810FA"/>
<path d="M64.6479 32.7871C64.7768 32.7947 64.8421 32.8039 64.9423 32.889C65.047 33.0155 65.0751 33.0762 65.0679 33.2399C64.9523 33.2399 64.8883 33.2345 64.7972 33.1603C64.705 33.0609 64.6518 32.9998 64.6348 32.8626C64.6391 32.8377 64.6434 32.8128 64.6479 32.7871Z" fill="#9810FA"/>
<path d="M72.6401 30.6838C72.7639 30.6611 72.8133 30.6796 72.9213 30.746C73.0001 30.8347 73.0001 30.8347 73.0113 30.9498C73.0076 30.9815 73.0039 31.0133 73.0001 31.046C72.9063 31.0705 72.9063 31.0705 72.7901 31.0762C72.6852 31.0097 72.6246 30.9637 72.5801 30.846C72.5801 30.7743 72.5801 30.7743 72.6401 30.6838Z" fill="#9810FA"/>
<path d="M11.1091 27.7204C11.0755 27.915 10.9094 28.058 10.7584 28.1732C10.6591 28.2335 10.6591 28.2335 10.5391 28.2335C10.5488 28.0719 10.6392 27.9799 10.7491 27.8713C10.8626 27.7712 10.9507 27.6962 11.1091 27.7204Z" fill="#9810FA"/>
<path d="M70.1967 26.7499C70.322 26.7399 70.3944 26.7437 70.508 26.8009C70.5867 26.8707 70.5867 26.8707 70.6148 26.9499C70.6167 27.0216 70.6167 27.0216 70.5867 27.082C70.4835 27.1217 70.4348 27.1116 70.328 27.0782C70.2211 27.0185 70.1785 26.9857 70.1367 26.8707C70.1611 26.8009 70.1611 26.8009 70.1967 26.7499Z" fill="#9810FA"/>
<path d="M63.2397 32.1311C63.365 32.121 63.4373 32.1248 63.5509 32.182C63.6297 32.2518 63.6297 32.2518 63.6578 32.331C63.6597 32.4027 63.6597 32.4027 63.6297 32.4631C63.5265 32.5028 63.4777 32.4927 63.3709 32.4593C63.264 32.3996 63.2215 32.3668 63.1797 32.2518C63.2041 32.182 63.2041 32.182 63.2397 32.1311Z" fill="#9810FA"/>
<path d="M66.188 31.9817C66.3051 32.0194 66.3555 32.0664 66.4317 32.1628C66.4731 32.2908 66.4731 32.2908 66.4317 32.3741C66.2162 32.3925 66.2162 32.3925 66.1036 32.3081C66.0416 32.223 66.0117 32.1774 66.0117 32.0722C66.0606 31.9855 66.089 31.9817 66.188 31.9817Z" fill="#9810FA"/>
<path d="M57.6567 27.1504C57.7738 27.1881 57.8243 27.2351 57.9005 27.3315C57.9419 27.4595 57.9419 27.4595 57.9005 27.5428C57.685 27.5612 57.685 27.5612 57.5723 27.4768C57.5103 27.3917 57.4805 27.3461 57.4805 27.2409C57.5293 27.1542 57.5578 27.1504 57.6567 27.1504Z" fill="#9810FA"/>
<path d="M74.5311 21.6581C74.6061 21.709 74.6061 21.709 74.6511 21.7788C74.6586 21.8769 74.6586 21.8769 74.6511 21.9599C74.5651 22.0032 74.5067 21.9994 74.4111 21.9901C74.3098 21.943 74.3098 21.943 74.2311 21.8694C74.2198 21.7562 74.2198 21.7562 74.2311 21.6581C74.3291 21.6088 74.4285 21.632 74.5311 21.6581Z" fill="#9810FA"/>
<path d="M20.5397 8.60864C20.6849 8.62301 20.7365 8.66338 20.8341 8.77089C20.8622 8.86899 20.8622 8.86899 20.8641 8.95201C20.8341 8.98219 20.8341 8.98219 20.7384 8.99351C20.5932 8.97914 20.5416 8.93878 20.4441 8.83126C20.4159 8.73316 20.4159 8.73316 20.4141 8.65015C20.4441 8.61996 20.4441 8.61996 20.5397 8.60864Z" fill="#9810FA"/>
<path d="M26.2712 14.1776C26.3617 14.2319 26.4369 14.2839 26.5112 14.3587C26.515 14.438 26.515 14.438 26.5112 14.5097C26.4134 14.5415 26.369 14.5428 26.2712 14.5059C26.1748 14.4453 26.1039 14.3865 26.0312 14.2984C26.0312 14.2585 26.0312 14.2187 26.0312 14.1776C26.1207 14.1326 26.1752 14.1535 26.2712 14.1776Z" fill="#9810FA"/>
<path d="M44.6813 10.6606C44.7375 10.6946 44.7375 10.6946 44.7713 10.7512C44.783 10.8453 44.7864 10.9055 44.7394 10.9889C44.6493 11.0416 44.573 11.0322 44.4713 11.0229C44.4015 10.9527 44.4024 10.9369 44.4019 10.8418C44.4014 10.8206 44.4009 10.7994 44.4004 10.7776C44.404 10.7589 44.4076 10.7403 44.4113 10.721C44.5154 10.6512 44.559 10.6478 44.6813 10.6606Z" fill="#9810FA"/>
<path d="M36.6539 17.7134C36.7102 17.7473 36.7102 17.7473 36.7439 17.8039C36.7556 17.8981 36.7591 17.9582 36.7121 18.0416C36.6219 18.0943 36.5457 18.0849 36.4439 18.0756C36.3742 18.0054 36.3751 17.9897 36.3746 17.8945C36.3741 17.8733 36.3736 17.8522 36.373 17.8303C36.3766 17.8117 36.3802 17.793 36.3839 17.7737C36.488 17.7039 36.5316 17.7006 36.6539 17.7134Z" fill="#9810FA"/>
<path d="M29.5305 43.6334C29.5905 43.6937 29.5905 43.6937 29.6017 43.7805C29.5905 43.8749 29.5905 43.8749 29.5417 43.9466C29.451 44.009 29.3983 44.0098 29.2905 43.9956C29.2707 43.9757 29.2509 43.9558 29.2305 43.9352C29.236 43.8334 29.2425 43.7534 29.2961 43.6654C29.3766 43.618 29.4392 43.6236 29.5305 43.6334Z" fill="#9810FA"/>
<path d="M38.7395 42.1922C38.7995 42.2526 38.7995 42.2526 38.8107 42.3394C38.7995 42.4337 38.7995 42.4337 38.7507 42.5054C38.66 42.5678 38.6073 42.5686 38.4995 42.5544C38.4797 42.5345 38.4599 42.5146 38.4395 42.4941C38.445 42.3922 38.4515 42.3122 38.5051 42.2243C38.5856 42.1768 38.6481 42.1824 38.7395 42.1922Z" fill="#9810FA"/>
<path d="M43.6024 11.6643C43.6431 11.7621 43.6661 11.8246 43.6474 11.9303C43.6024 11.9963 43.6024 11.9963 43.5143 12.0246C43.4224 12.0265 43.4224 12.0265 43.3324 11.9662C43.3055 11.8705 43.2937 11.8099 43.3268 11.7152C43.404 11.6048 43.4833 11.6409 43.6024 11.6643Z" fill="#9810FA"/>
<path d="M35.8133 16.717C35.854 16.8149 35.877 16.8774 35.8583 16.983C35.8133 17.0491 35.8133 17.0491 35.7252 17.0774C35.6333 17.0793 35.6333 17.0793 35.5433 17.0189C35.5165 16.9232 35.5046 16.8626 35.5377 16.768C35.6149 16.6575 35.6943 16.6936 35.8133 16.717Z" fill="#9810FA"/>
<path d="M74.1413 29.7178C74.3556 29.7486 74.5427 29.8186 74.7113 29.9593C74.7348 30.0255 74.7348 30.0255 74.7413 30.08C74.5149 30.0727 74.3493 30.0133 74.1713 29.8687C74.1328 29.8023 74.1328 29.8023 74.1113 29.748C74.1212 29.738 74.1311 29.728 74.1413 29.7178Z" fill="#9810FA"/>
<path d="M11.2729 11.1663C11.3913 11.1509 11.4565 11.1479 11.556 11.2172C11.6114 11.2998 11.6182 11.3403 11.6029 11.438C11.5429 11.4983 11.5429 11.4983 11.4398 11.5078C11.3329 11.4983 11.3329 11.4983 11.2766 11.4625C11.2335 11.3926 11.219 11.3389 11.2129 11.2569C11.2327 11.227 11.2525 11.1971 11.2729 11.1663Z" fill="#9810FA"/>
<path d="M64.2266 40.7563C64.2981 40.8407 64.3156 40.8945 64.3241 41.0053C64.3166 41.0883 64.3166 41.0883 64.2866 41.1185C64.0476 41.1004 64.0476 41.1004 63.9566 40.9978C63.9416 40.9223 63.9416 40.9223 63.9566 40.8468C64.0377 40.7591 64.1092 40.732 64.2266 40.7563Z" fill="#9810FA"/>
<path d="M75.6719 34.5173C75.8559 34.5284 75.9389 34.5659 76.0619 34.6984C76.0881 34.7984 76.0881 34.7984 76.0919 34.8796C75.9593 34.8929 75.8959 34.8882 75.7806 34.8173C75.689 34.7141 75.6772 34.6536 75.6719 34.5173Z" fill="#9810FA"/>
<path d="M72.6176 19.791C72.7095 19.8004 72.7095 19.8004 72.7676 19.8325C72.8189 19.9267 72.7936 20.0014 72.7695 20.1023C72.6846 20.145 72.6232 20.1421 72.5295 20.1325C72.4713 20.0816 72.4713 20.0816 72.4395 20.0117C72.449 19.8766 72.4748 19.8063 72.6176 19.791Z" fill="#9810FA"/>
<path d="M77.3338 11.3634C77.3938 11.4124 77.3938 11.4124 77.4238 11.4841C77.411 11.6479 77.411 11.6479 77.3638 11.6954C77.1754 11.6849 77.1754 11.6849 77.0957 11.6124C77.0588 11.5338 77.0567 11.4795 77.0638 11.3935C77.1563 11.347 77.2321 11.3544 77.3338 11.3634Z" fill="#9810FA"/>
<path d="M64.9842 14.6436C65.0442 14.6927 65.0442 14.6927 65.0742 14.7644C65.0614 14.9282 65.0614 14.9282 65.0142 14.9757C64.8258 14.9651 64.8258 14.9651 64.7461 14.8927C64.7092 14.8141 64.7071 14.7598 64.7142 14.6738C64.8067 14.6273 64.8824 14.6347 64.9842 14.6436Z" fill="#9810FA"/>
<path d="M41.5143 10.0627C41.5931 10.0948 41.5931 10.0948 41.623 10.1454C41.6676 10.2594 41.698 10.3636 41.6831 10.4872C41.6531 10.5174 41.6531 10.5174 41.5762 10.5193C41.5521 10.5187 41.5279 10.5181 41.5031 10.5174C41.482 10.4698 41.4615 10.422 41.4412 10.374C41.4297 10.3474 41.4182 10.3208 41.4064 10.2934C41.3816 10.2105 41.382 10.1743 41.4131 10.0948C41.4431 10.0646 41.4431 10.0646 41.5143 10.0627Z" fill="#9810FA"/>
<path d="M33.7253 15.1155C33.804 15.1476 33.804 15.1476 33.8339 15.1981C33.8785 15.3121 33.9089 15.4163 33.894 15.54C33.864 15.5702 33.864 15.5702 33.7871 15.572C33.763 15.5714 33.7389 15.5708 33.714 15.5702C33.693 15.5225 33.6725 15.4747 33.6521 15.4268C33.6407 15.4002 33.6292 15.3735 33.6173 15.3461C33.5925 15.2632 33.5929 15.227 33.624 15.1476C33.654 15.1174 33.654 15.1174 33.7253 15.1155Z" fill="#9810FA"/>
<path d="M65.0018 41.3806C65.0974 41.39 65.0974 41.39 65.1687 41.4391C65.2298 41.529 65.2271 41.5851 65.2174 41.6919C65.0579 41.7284 65.0579 41.7284 64.9699 41.7013C64.9056 41.6528 64.8821 41.6179 64.8574 41.541C64.8738 41.4259 64.8833 41.3939 65.0018 41.3806Z" fill="#9810FA"/>
<path d="M71.217 35.3228C71.4061 35.3333 71.4061 35.3333 71.4832 35.4058C71.5205 35.4807 71.5404 35.5409 71.547 35.6246C71.487 35.685 71.487 35.685 71.4007 35.7001C71.307 35.685 71.307 35.685 71.2357 35.6039C71.1885 35.507 71.172 35.4583 71.187 35.3529C71.1969 35.343 71.2068 35.333 71.217 35.3228Z" fill="#9810FA"/>
<path d="M31.8985 8.36914C32.022 8.38018 32.1124 8.39653 32.1985 8.48988C32.2098 8.56723 32.2098 8.56723 32.1985 8.64081C32.1787 8.66074 32.1589 8.68066 32.1385 8.70118C32.0366 8.69559 31.9571 8.68807 31.8685 8.63515C31.8224 8.55105 31.8452 8.4894 31.8685 8.39933C31.8784 8.38937 31.8883 8.3794 31.8985 8.36914Z" fill="#9810FA"/>
<path d="M25.9044 16.0845C26.0278 16.0955 26.1182 16.1119 26.2044 16.2052C26.2156 16.2826 26.2156 16.2826 26.2044 16.3561C26.1846 16.3761 26.1648 16.396 26.1444 16.4165C26.0425 16.4109 25.9629 16.4034 25.8744 16.3505C25.8283 16.2664 25.851 16.2047 25.8744 16.1147C25.8843 16.1047 25.8942 16.0947 25.9044 16.0845Z" fill="#9810FA"/>
<path d="M78.1427 8.10321C78.1526 8.1331 78.1625 8.16298 78.1727 8.19377C78.0885 8.29698 78.0283 8.35354 77.897 8.37111C77.7827 8.37488 77.7827 8.37488 77.7227 8.3447C77.7306 8.24639 77.7397 8.20524 77.8145 8.13906C77.9311 8.09164 78.0175 8.09681 78.1427 8.10321Z" fill="#9810FA"/>
<path d="M65.793 11.3835C65.8029 11.4134 65.8128 11.4433 65.823 11.474C65.7389 11.5772 65.6787 11.6338 65.5474 11.6514C65.433 11.6552 65.433 11.6552 65.373 11.625C65.381 11.5267 65.3901 11.4855 65.4649 11.4193C65.5815 11.3719 65.6679 11.3771 65.793 11.3835Z" fill="#9810FA"/>
<path d="M54.3195 5.77062C54.3393 5.79054 54.3591 5.81046 54.3795 5.83099C54.3659 5.99564 54.3659 5.99564 54.2895 6.07247C54.1845 6.08002 54.1845 6.08002 54.0795 6.07247C54.0597 6.05255 54.0399 6.03263 54.0195 6.0121C54.0258 5.92975 54.0401 5.87569 54.0852 5.80646C54.1651 5.75376 54.2263 5.76063 54.3195 5.77062Z" fill="#9810FA"/>
<path d="M47.5969 14.18C47.6167 14.2 47.6365 14.2199 47.6569 14.2404C47.6432 14.4051 47.6432 14.4051 47.5669 14.4819C47.4619 14.4894 47.4619 14.4894 47.3569 14.4819C47.3371 14.462 47.3173 14.4421 47.2969 14.4215C47.3032 14.3392 47.3174 14.2851 47.3625 14.2159C47.4424 14.1632 47.5036 14.1701 47.5969 14.18Z" fill="#9810FA"/>
<path d="M18.9619 28.0298C18.9841 28.0373 19.0064 28.0448 19.0294 28.0525C19.0693 28.2422 19.0693 28.2422 19.0256 28.3373C18.9694 28.3845 18.9694 28.3845 18.8925 28.3958C18.8194 28.3845 18.8194 28.3845 18.7594 28.3241C18.7451 28.2138 18.7464 28.1619 18.81 28.0694C18.8794 28.0223 18.8794 28.0223 18.9619 28.0298Z" fill="#9810FA"/>
<path d="M27.0688 8.64091C27.1401 8.69185 27.1401 8.69185 27.1888 8.76165C27.1963 8.85975 27.1963 8.85975 27.1888 8.94277C27.1591 8.95273 27.1294 8.96269 27.0988 8.97295C27.0244 8.92968 27.0244 8.92968 26.9432 8.86919C26.9162 8.8493 26.8891 8.82942 26.8613 8.80893C26.8407 8.79333 26.8201 8.77773 26.7988 8.76165C26.8101 8.70317 26.8101 8.70317 26.8288 8.64091C26.918 8.59607 26.9739 8.61606 27.0688 8.64091Z" fill="#9810FA"/>
<path d="M22.0847 5.76138C22.1667 5.78817 22.2015 5.80489 22.2497 5.87646C22.2591 5.95381 22.2591 5.95381 22.2497 6.02739C22.1897 6.08776 22.1897 6.08776 22.1016 6.09719C22.0097 6.08776 22.0097 6.08776 21.9535 6.0538C21.9041 5.97097 21.9077 5.91059 21.9197 5.81609C22.0097 5.75572 22.0097 5.75572 22.0847 5.76138Z" fill="#9810FA"/>
<path d="M20.8009 29.8635C21.0034 29.8862 21.0034 29.8862 21.0709 29.9541C21.0822 30.0277 21.0822 30.0277 21.0709 30.105C21.0109 30.1597 21.0109 30.1597 20.9509 30.1956C20.9113 30.1756 20.8717 30.1557 20.8309 30.1352C20.821 30.1551 20.8111 30.175 20.8009 30.1956C20.7712 30.1956 20.7415 30.1956 20.7109 30.1956C20.7275 30.0764 20.7526 29.9737 20.8009 29.8635Z" fill="#9810FA"/>
<path d="M30.0099 28.4224C30.2124 28.445 30.2124 28.445 30.2799 28.5129C30.2912 28.5865 30.2912 28.5865 30.2799 28.6638C30.2199 28.7186 30.2199 28.7186 30.1599 28.7544C30.1203 28.7345 30.0807 28.7146 30.0399 28.694C30.03 28.714 30.0201 28.7339 30.0099 28.7544C29.9802 28.7544 29.9505 28.7544 29.9199 28.7544C29.9365 28.6352 29.9616 28.5326 30.0099 28.4224Z" fill="#9810FA"/>
<path d="M32.5295 2.69434C32.6382 2.70566 32.6382 2.70566 32.7395 2.72452C32.7764 2.91771 32.7764 2.91771 32.7414 3.0094C32.7308 3.02496 32.7203 3.04053 32.7095 3.05657C32.6232 3.04902 32.6232 3.04902 32.5295 3.02638C32.463 2.9413 32.4584 2.86057 32.4695 2.75471C32.4893 2.73478 32.5091 2.71486 32.5295 2.69434Z" fill="#9810FA"/>
<path d="M32.0481 9.06348C32.1493 9.06348 32.1493 9.06348 32.2581 9.09366C32.3181 9.19554 32.3181 9.19554 32.3481 9.30496C32.3382 9.33485 32.3283 9.36473 32.3181 9.39552C32.1254 9.41015 32.1254 9.41015 32.05 9.34647C32.0102 9.25704 32.0095 9.19062 32.0181 9.09366C32.028 9.0837 32.0379 9.07374 32.0481 9.06348Z" fill="#9810FA"/>
<path d="M26.0539 16.7788C26.1552 16.7788 26.1552 16.7788 26.2639 16.809C26.3239 16.9109 26.3239 16.9109 26.3539 17.0203C26.344 17.0502 26.3341 17.0801 26.3239 17.1109C26.1313 17.1255 26.1313 17.1255 26.0558 17.0618C26.0161 16.9724 26.0154 16.906 26.0239 16.809C26.0338 16.799 26.0437 16.7891 26.0539 16.7788Z" fill="#9810FA"/>
<path d="M71.8168 36.9526C71.9832 36.9853 72.0597 37.0689 72.1671 37.192C72.2068 37.2545 72.2068 37.2545 72.2068 37.3752C72.0591 37.3621 71.9831 37.294 71.8768 37.1941C71.8122 37.0967 71.8107 37.0648 71.8168 36.9526Z" fill="#9810FA"/>
<path d="M45.6128 3.17061C45.6803 3.21401 45.6803 3.21401 45.7084 3.27061C45.7109 3.35503 45.7044 3.38976 45.6503 3.45549C45.5453 3.48191 45.5453 3.48191 45.4403 3.48568C45.3803 3.42531 45.3803 3.42531 45.3672 3.33664C45.3803 3.24419 45.3803 3.24419 45.4459 3.18382C45.5303 3.15364 45.5303 3.15364 45.6128 3.17061Z" fill="#9810FA"/>
<path d="M37.519 3.62871C37.5883 3.62116 37.5883 3.62116 37.669 3.62871C37.7334 3.69482 37.7573 3.7346 37.7677 3.82727C37.7667 3.85389 37.7657 3.8805 37.7646 3.90792C37.7638 3.93485 37.763 3.96178 37.7621 3.98952C37.7611 4.00991 37.76 4.0303 37.759 4.05131C37.7194 4.06127 37.6798 4.07123 37.639 4.08149C37.5311 3.91877 37.5053 3.82381 37.519 3.62871Z" fill="#9810FA"/>
<path d="M31.0658 12.1302C31.1352 12.1226 31.1352 12.1226 31.2158 12.1302C31.2803 12.1963 31.3042 12.2361 31.3146 12.3287C31.3136 12.3554 31.3125 12.382 31.3115 12.4094C31.3106 12.4363 31.3098 12.4632 31.309 12.491C31.308 12.5114 31.3069 12.5318 31.3058 12.5528C31.2662 12.5627 31.2266 12.5727 31.1858 12.583C31.078 12.4202 31.0522 12.3253 31.0658 12.1302Z" fill="#9810FA"/>
<path d="M22.6291 30.8598C22.7153 30.856 22.7153 30.856 22.8091 30.8598C22.8691 30.9201 22.8691 30.9201 22.8841 30.9899C22.8691 31.0711 22.8691 31.0711 22.7884 31.1578C22.6891 31.222 22.6891 31.222 22.6028 31.2163C22.5818 31.2082 22.5607 31.2001 22.5391 31.1918C22.5483 31.1762 22.5576 31.1607 22.5672 31.1446C22.6078 31.0509 22.6175 30.9609 22.6291 30.8598Z" fill="#9810FA"/>
<path d="M31.838 29.4186C31.9243 29.4148 31.9243 29.4148 32.018 29.4186C32.078 29.479 32.078 29.479 32.093 29.5488C32.078 29.6299 32.078 29.6299 31.9974 29.7167C31.898 29.7808 31.898 29.7808 31.8118 29.7752C31.7908 29.7671 31.7697 29.759 31.748 29.7506C31.7573 29.7351 31.7666 29.7195 31.7762 29.7035C31.8168 29.6098 31.8265 29.5197 31.838 29.4186Z" fill="#9810FA"/>
<path d="M32.7873 28.0028C32.8735 27.9991 32.8735 27.9991 32.9673 28.0028C33.0273 28.0632 33.0273 28.0632 33.0423 28.133C33.0273 28.2141 33.0273 28.2141 32.9466 28.3009C32.8473 28.3651 32.8473 28.3651 32.761 28.3594C32.74 28.3513 32.7189 28.3432 32.6973 28.3349C32.7065 28.3193 32.7158 28.3037 32.7254 28.2877C32.766 28.194 32.7757 28.1039 32.7873 28.0028Z" fill="#9810FA"/>
<path d="M71.6939 5.68833C71.8026 5.68267 71.8026 5.68267 71.9039 5.68833C71.9414 5.88831 71.9414 5.88831 71.8739 5.99018C71.7651 5.99584 71.7651 5.99584 71.6639 5.99018C71.6264 5.7902 71.6264 5.7902 71.6939 5.68833Z" fill="#9810FA"/>
<path d="M62.3638 13.2777C62.4725 13.272 62.4725 13.272 62.5738 13.2777C62.6113 13.4777 62.6113 13.4777 62.5438 13.5795C62.435 13.5852 62.435 13.5852 62.3338 13.5795C62.2963 13.3796 62.2963 13.3796 62.3638 13.2777Z" fill="#9810FA"/>
<path d="M57.5181 12.9825C57.6268 12.9769 57.6268 12.9769 57.7281 12.9825C57.7656 13.1825 57.7656 13.1825 57.6981 13.2844C57.5893 13.29 57.5893 13.29 57.4881 13.2844C57.4506 13.0844 57.4506 13.0844 57.5181 12.9825Z" fill="#9810FA"/>
<path d="M6.58211 23.3786C6.57143 23.4565 6.55711 23.4939 6.50336 23.5522C6.40544 23.604 6.33108 23.6 6.22211 23.5899C6.20231 23.57 6.18251 23.5501 6.16211 23.5295C6.16586 23.4692 6.16586 23.4692 6.19211 23.4088C6.30124 23.3243 6.46027 23.3173 6.58211 23.3786Z" fill="#9810FA"/>
<path d="M76.8543 12.1178C76.9143 12.1782 76.9143 12.1782 76.9218 12.2536C76.9143 12.3291 76.9143 12.3291 76.8543 12.3895C76.6646 12.3997 76.6646 12.3997 76.5843 12.3593C76.5787 12.2725 76.5787 12.2725 76.5843 12.1782C76.6879 12.1087 76.7327 12.1074 76.8543 12.1178Z" fill="#9810FA"/>
<path d="M64.5047 15.3981C64.5647 15.4584 64.5647 15.4584 64.5722 15.5339C64.5647 15.6094 64.5647 15.6094 64.5047 15.6697C64.315 15.68 64.315 15.68 64.2347 15.6396C64.2291 15.5528 64.2291 15.5528 64.2347 15.4584C64.3383 15.389 64.3831 15.3877 64.5047 15.3981Z" fill="#9810FA"/>
<path d="M57.8327 4.85624C57.8651 4.86745 57.8651 4.86745 57.8983 4.87888C57.9081 4.98755 57.9104 5.04237 57.8477 5.13358C57.7783 5.18074 57.7783 5.18074 57.6977 5.17508C57.6283 5.15056 57.6283 5.15056 57.5983 5.12037C57.587 5.05056 57.587 5.05056 57.5983 4.96944C57.6773 4.88316 57.7141 4.84564 57.8327 4.85624Z" fill="#9810FA"/>
<path d="M56.0075 8.6521C56.0694 8.66531 56.0694 8.66531 56.1275 8.68229C56.1337 8.79425 56.1192 8.85601 56.0675 8.95396C56.0562 9.00399 56.0459 9.05428 56.0375 9.10489C55.988 9.10489 55.9385 9.10489 55.8875 9.10489C55.8787 8.93408 55.8865 8.83254 55.9775 8.68229C55.9874 8.67232 55.9973 8.66236 56.0075 8.6521Z" fill="#9810FA"/>
<path d="M12.2023 13.5509C12.2623 13.6414 12.2623 13.6414 12.2511 13.7075C12.2449 13.7255 12.2387 13.7436 12.2323 13.7622C12.1886 13.7638 12.1449 13.765 12.1011 13.7659C12.0767 13.7666 12.0524 13.7673 12.0273 13.7681C11.9623 13.7622 11.9623 13.7622 11.9023 13.7018C11.9061 13.6263 11.9061 13.6263 11.9323 13.5509C12.0313 13.4691 12.0953 13.4913 12.2023 13.5509Z" fill="#9810FA"/>
<path d="M82.4226 27.7256C82.5797 27.738 82.6713 27.7613 82.7826 27.8765C82.807 27.9444 82.807 27.9444 82.8126 27.9973C82.7405 28.0228 82.7038 28.0313 82.6305 28.0061C82.6101 27.9951 82.5898 27.9841 82.5688 27.9727C82.5483 27.962 82.5278 27.9512 82.5067 27.9401C82.4526 27.9067 82.4526 27.9067 82.3926 27.8463C82.4038 27.7822 82.4038 27.7822 82.4226 27.7256Z" fill="#9810FA"/>
<path d="M16.4634 27.8054C16.4789 27.8173 16.4944 27.8291 16.5103 27.8413C16.4905 27.911 16.4707 27.9807 16.4503 28.0526C16.2687 28.0585 16.2687 28.0585 16.2103 28.0526C16.1503 27.9922 16.1503 27.9922 16.1484 27.9337C16.1803 27.8715 16.1803 27.8715 16.2797 27.8149C16.3903 27.7809 16.3903 27.7809 16.4634 27.8054Z" fill="#9810FA"/>
<path d="M76.2533 14.4648C76.3433 14.4724 76.3433 14.4724 76.4033 14.5328C76.4108 14.6082 76.4108 14.6082 76.4033 14.6837C76.3433 14.7441 76.3433 14.7441 76.2533 14.7516C76.1633 14.7441 76.1633 14.7441 76.1033 14.6837C76.0958 14.6082 76.0958 14.6082 76.1033 14.5328C76.1633 14.4724 76.1633 14.4724 76.2533 14.4648Z" fill="#9810FA"/>
<path d="M26.0187 14.9194C26.1343 14.9274 26.1856 14.9367 26.27 15.0194C26.3187 15.1005 26.3187 15.1005 26.3187 15.2213C26.2531 15.2458 26.2531 15.2458 26.1687 15.2515C26.0844 15.1892 26.0844 15.1892 26.0187 15.1005C26.0094 15.0006 26.0094 15.0006 26.0187 14.9194Z" fill="#9810FA"/>
<path d="M49.3482 9.93628C49.4232 9.94383 49.4232 9.94383 49.4832 10.0042C49.4926 10.0948 49.4926 10.0948 49.4832 10.1853C49.3932 10.2457 49.3932 10.2457 49.3145 10.2363C49.2432 10.2155 49.2432 10.2155 49.2132 10.1853C49.2076 10.0966 49.2076 10.0966 49.2132 10.0042C49.2732 9.94383 49.2732 9.94383 49.3482 9.93628Z" fill="#9810FA"/>
<path d="M41.5591 14.989C41.6341 14.9966 41.6341 14.9966 41.6941 15.0569C41.7035 15.1475 41.7035 15.1475 41.6941 15.238C41.6041 15.2984 41.6041 15.2984 41.5254 15.289C41.4541 15.2682 41.4541 15.2682 41.4241 15.238C41.4185 15.1494 41.4185 15.1494 41.4241 15.0569C41.4841 14.9966 41.4841 14.9966 41.5591 14.989Z" fill="#9810FA"/>
<path d="M27.9709 32.1881C27.9934 32.256 27.9934 32.256 28.0009 32.339C27.9521 32.4088 27.9521 32.4088 27.8809 32.4598C27.8002 32.4692 27.8002 32.4692 27.7309 32.4598C27.7009 32.4296 27.7009 32.4296 27.6934 32.3579C27.7009 32.2787 27.7009 32.2787 27.7346 32.2239C27.8141 32.1733 27.8788 32.1819 27.9709 32.1881Z" fill="#9810FA"/>
<path d="M37.1798 30.7469C37.2023 30.8149 37.2023 30.8149 37.2098 30.8979C37.1611 30.9677 37.1611 30.9677 37.0898 31.0186C37.0092 31.028 37.0092 31.028 36.9398 31.0186C36.9098 30.9884 36.9098 30.9884 36.9023 30.9167C36.9098 30.8375 36.9098 30.8375 36.9436 30.7828C37.0231 30.7321 37.0878 30.7408 37.1798 30.7469Z" fill="#9810FA"/>
<path d="M38.1291 29.3312C38.1516 29.3991 38.1516 29.3991 38.1591 29.4821C38.1103 29.5519 38.1103 29.5519 38.0391 29.6028C37.9584 29.6123 37.9584 29.6123 37.8891 29.6028C37.8591 29.5726 37.8591 29.5726 37.8516 29.501C37.8591 29.4217 37.8591 29.4217 37.8928 29.367C37.9723 29.3163 38.037 29.325 38.1291 29.3312Z" fill="#9810FA"/>
<path d="M33.7866 6.68696C33.8578 6.70771 33.8578 6.70771 33.8878 6.7379C33.8792 6.80852 33.8692 6.87898 33.8578 6.9492C33.7884 6.96807 33.7884 6.96807 33.7078 6.97939C33.6781 6.95946 33.6484 6.93954 33.6178 6.91901C33.6066 6.82846 33.6066 6.82846 33.6178 6.7379C33.7078 6.67753 33.7078 6.67753 33.7866 6.68696Z" fill="#9810FA"/>
<path d="M27.3334 15.1884C27.4047 15.2092 27.4047 15.2092 27.4347 15.2394C27.4261 15.31 27.4161 15.3804 27.4047 15.4507C27.3353 15.4695 27.3353 15.4695 27.2547 15.4809C27.225 15.4609 27.1953 15.441 27.1647 15.4205C27.1534 15.3299 27.1534 15.3299 27.1647 15.2394C27.2547 15.179 27.2547 15.179 27.3334 15.1884Z" fill="#9810FA"/>
<path d="M68.8613 30.0195C69.0305 30.057 69.1294 30.1051 69.2513 30.2308C69.2513 30.2707 69.2513 30.3105 69.2513 30.3516C69.0962 30.3418 68.966 30.2519 68.8613 30.1403C68.8613 30.1004 68.8613 30.0606 68.8613 30.0195Z" fill="#9810FA"/>
<path d="M61.9043 35.4006C62.0734 35.4381 62.1723 35.4862 62.2943 35.6119C62.2943 35.6518 62.2943 35.6916 62.2943 35.7327C62.1392 35.7229 62.009 35.633 61.9043 35.5214C61.9043 35.4815 61.9043 35.4417 61.9043 35.4006Z" fill="#9810FA"/>
<path d="M73.3138 11.5442C73.3237 11.594 73.3336 11.6438 73.3438 11.6952C73.2052 11.6952 73.0666 11.6952 72.9238 11.6952C72.9538 11.5744 72.9538 11.5744 73.0007 11.5348C73.1109 11.5035 73.2013 11.5254 73.3138 11.5442Z" fill="#9810FA"/>
<path d="M59.138 18.8384C59.1479 18.8882 59.1578 18.938 59.168 18.9893C59.0294 18.9893 58.8908 18.9893 58.748 18.9893C58.778 18.8686 58.778 18.8686 58.8249 18.829C58.9351 18.7977 59.0255 18.8195 59.138 18.8384Z" fill="#9810FA"/>
<path d="M23.9609 11.7024C24.1171 11.7147 24.2116 11.7367 24.3209 11.8533C24.3209 11.8932 24.3209 11.933 24.3209 11.9741C24.1648 11.9617 24.0702 11.9398 23.9609 11.8231C23.9609 11.7833 23.9609 11.7434 23.9609 11.7024Z" fill="#9810FA"/>
<path d="M31.9477 35.562C31.9367 35.7466 31.8958 35.8286 31.7677 35.9544C31.738 35.9544 31.7083 35.9544 31.6777 35.9544C31.6882 35.7788 31.738 35.562 31.9477 35.562Z" fill="#9810FA"/>
<path d="M41.1567 34.1208C41.1457 34.3054 41.1048 34.3875 40.9767 34.5133C40.947 34.5133 40.9173 34.5133 40.8867 34.5133C40.8972 34.3377 40.947 34.1208 41.1567 34.1208Z" fill="#9810FA"/>
<path d="M40.977 33.3757C40.966 33.5603 40.9251 33.6424 40.797 33.7681C40.7673 33.7681 40.7376 33.7681 40.707 33.7681C40.7175 33.5925 40.7673 33.3757 40.977 33.3757Z" fill="#9810FA"/>
<path d="M19.3318 26.8801C19.3936 26.8933 19.3936 26.8933 19.4518 26.9103C19.4534 26.9587 19.4545 27.0072 19.4555 27.0556C19.4562 27.0825 19.4569 27.1095 19.4576 27.1373C19.4518 27.2122 19.4518 27.2122 19.3918 27.3027C19.3621 27.3027 19.3324 27.3027 19.3018 27.3027C19.301 27.238 19.3004 27.1732 19.2999 27.1084C19.2995 27.0723 19.2992 27.0363 19.2988 26.9991C19.3018 26.9103 19.3018 26.9103 19.3318 26.8801Z" fill="#9810FA"/>
<path d="M53.787 33.8135C53.8684 33.8217 53.9021 33.8389 53.9614 33.8965C54.0065 33.9825 53.9947 34.0242 53.967 34.1153C53.8747 34.1053 53.8285 34.0963 53.7608 34.0304C53.727 33.9644 53.727 33.9644 53.7345 33.8984C53.757 33.8437 53.757 33.8437 53.787 33.8135Z" fill="#9810FA"/>
<path d="M41.6853 28.2476C41.715 28.2476 41.7447 28.2476 41.7753 28.2476C41.8212 28.3401 41.8122 28.4171 41.8053 28.5192C41.764 28.6079 41.764 28.6079 41.7153 28.6702C41.6955 28.6702 41.6757 28.6702 41.6553 28.6702C41.6545 28.611 41.6539 28.5519 41.6534 28.4928C41.6531 28.4599 41.6527 28.427 41.6523 28.3931C41.6553 28.3079 41.6553 28.3079 41.6853 28.2476Z" fill="#9810FA"/>
<path d="M72.4909 26.0955C72.6117 26.1039 72.6633 26.1191 72.7572 26.1992C72.8209 26.2766 72.8209 26.2766 72.8209 26.3369C72.7319 26.3476 72.6663 26.3533 72.5889 26.3033C72.5448 26.2659 72.5027 26.2261 72.4609 26.186C72.4708 26.1561 72.4807 26.1262 72.4909 26.0955Z" fill="#9810FA"/>
<path d="M23.7507 13.876C23.8209 13.8846 23.8909 13.8947 23.9607 13.9062C23.9805 13.956 24.0003 14.0058 24.0207 14.0571C23.9701 14.0929 23.9701 14.0929 23.9007 14.1175C23.8103 14.0794 23.7624 14.0554 23.7245 13.9628C23.7232 13.9441 23.722 13.9254 23.7207 13.9062C23.7306 13.8962 23.7405 13.8862 23.7507 13.876Z" fill="#9810FA"/>
<path d="M38.6596 5.96069C38.7196 5.97013 38.7196 5.97013 38.7796 5.99088C38.8202 6.07265 38.8116 6.14209 38.8096 6.23237C38.77 6.24233 38.7304 6.25229 38.6896 6.26255C38.6427 6.21161 38.6427 6.21161 38.5996 6.14181C38.6119 6.00868 38.6119 6.00868 38.6596 5.96069Z" fill="#9810FA"/>
<path d="M32.4448 12.4622C32.5048 12.4716 32.5048 12.4716 32.5648 12.4923C32.6054 12.5741 32.5967 12.6436 32.5948 12.7338C32.5552 12.7438 32.5156 12.7538 32.4748 12.764C32.4279 12.7131 32.4279 12.7131 32.3848 12.6433C32.3971 12.5101 32.3971 12.5101 32.4448 12.4622Z" fill="#9810FA"/>
<path d="M30.7496 36.3469C30.7793 36.3469 30.809 36.3469 30.8396 36.3469C30.8261 36.4927 30.7932 36.5747 30.6896 36.679C30.6599 36.679 30.6302 36.679 30.5996 36.679C30.6131 36.5332 30.646 36.4511 30.7496 36.3469Z" fill="#9810FA"/>
<path d="M39.9586 34.9058C39.9883 34.9058 40.018 34.9058 40.0486 34.9058C40.0351 35.0515 40.0022 35.1336 39.8986 35.2378C39.8689 35.2378 39.8392 35.2378 39.8086 35.2378C39.8221 35.092 39.855 35.01 39.9586 34.9058Z" fill="#9810FA"/>
<path d="M39.7789 34.1606C39.8086 34.1606 39.8383 34.1606 39.8689 34.1606C39.8554 34.3064 39.8225 34.3885 39.7189 34.4927C39.6892 34.4927 39.6595 34.4927 39.6289 34.4927C39.6424 34.3469 39.6753 34.2649 39.7789 34.1606Z" fill="#9810FA"/>
<path d="M77.9226 29.5066C78.0675 29.5202 78.149 29.5533 78.2526 29.6575C78.2526 29.6874 78.2526 29.7173 78.2526 29.7481C78.0837 29.7359 78.0125 29.679 77.8926 29.567C77.9025 29.547 77.9124 29.5271 77.9226 29.5066Z" fill="#9810FA"/>
<path d="M17.8696 35.354C17.8591 35.4489 17.8444 35.4987 17.7852 35.5747C17.7196 35.6257 17.7196 35.6257 17.5996 35.6257C17.6101 35.5308 17.6248 35.4809 17.684 35.4049C17.7496 35.354 17.7496 35.354 17.8696 35.354Z" fill="#9810FA"/>
<path d="M23.1684 37.5688C23.158 37.6637 23.1433 37.7136 23.0841 37.7896C23.0184 37.8405 23.0184 37.8405 22.8984 37.8405C22.9089 37.7456 22.9236 37.6958 22.9828 37.6198C23.0484 37.5688 23.0484 37.5688 23.1684 37.5688Z" fill="#9810FA"/>
<path d="M43.8702 11.9888C43.9433 12.0001 43.9433 12.0001 44.0202 12.019C44.0609 12.1007 44.0522 12.1702 44.0502 12.2604C43.979 12.251 43.979 12.251 43.9002 12.2303C43.8402 12.1397 43.8402 12.1397 43.8515 12.0586C43.8577 12.0355 43.8638 12.0125 43.8702 11.9888Z" fill="#9810FA"/>
<path d="M36.1358 16.824C36.209 16.8353 36.209 16.8353 36.2858 16.8542C36.3265 16.9359 36.3178 17.0054 36.3158 17.0956C36.2446 17.0862 36.2446 17.0862 36.1658 17.0655C36.1058 16.9749 36.1058 16.9749 36.1171 16.8938C36.1233 16.8707 36.1295 16.8477 36.1358 16.824Z" fill="#9810FA"/>
<path d="M32.7892 38.1279C32.8288 38.1279 32.8684 38.1279 32.9092 38.1279C32.8867 38.3317 32.8867 38.3317 32.8192 38.3996C32.7796 38.3996 32.74 38.3996 32.6992 38.3996C32.7217 38.1958 32.7217 38.1958 32.7892 38.1279Z" fill="#9810FA"/>
<path d="M41.9982 36.6868C42.0378 36.6868 42.0774 36.6868 42.1182 36.6868C42.0957 36.8905 42.0957 36.8905 42.0282 36.9584C41.9886 36.9584 41.949 36.9584 41.9082 36.9584C41.9307 36.7547 41.9307 36.7547 41.9982 36.6868Z" fill="#9810FA"/>
<path d="M6.88055 20.6621C6.93995 20.682 6.99935 20.702 7.06055 20.7225C7.06055 20.7623 7.06055 20.8022 7.06055 20.8432C7.04075 20.8631 7.02095 20.8831 7.00055 20.9036C6.9218 20.8923 6.9218 20.8923 6.85055 20.8734C6.84927 20.8131 6.84932 20.7527 6.85055 20.6923C6.86045 20.6823 6.87035 20.6724 6.88055 20.6621Z" fill="#9810FA"/>
<path d="M41.0602 2.21777C41.1105 2.22641 41.1606 2.23642 41.2102 2.24796C41.229 2.31965 41.229 2.31965 41.2402 2.39889C41.2204 2.41881 41.2006 2.43873 41.1802 2.45926C41.1015 2.44794 41.1015 2.44794 41.0302 2.42907C41.029 2.36872 41.029 2.30832 41.0302 2.24796C41.0401 2.238 41.05 2.22804 41.0602 2.21777Z" fill="#9810FA"/>
<path d="M69.4022 24.1937C69.5364 24.1827 69.5364 24.1827 69.6066 24.2314C69.6422 24.2842 69.6422 24.2842 69.6422 24.405C69.5559 24.4087 69.5559 24.4087 69.4622 24.405C69.4022 24.3446 69.4022 24.3446 69.3984 24.2653C69.3997 24.2417 69.4009 24.218 69.4022 24.1937Z" fill="#9810FA"/>
<path d="M2.53125 21.5373C2.64967 21.5319 2.72919 21.5344 2.83125 21.5976C2.83125 21.6375 2.83125 21.6773 2.83125 21.7184C2.7314 21.7252 2.66871 21.7281 2.58 21.6788C2.53125 21.6278 2.53125 21.6278 2.53125 21.5373Z" fill="#9810FA"/>
<path d="M67.5566 34.4473C67.7028 34.5039 67.7028 34.5039 67.7366 34.5378C67.7378 34.5881 67.7378 34.6385 67.7366 34.6888C67.7069 34.6987 67.6772 34.7087 67.6466 34.7189C67.5809 34.685 67.5809 34.685 67.5266 34.6284C67.5172 34.5491 67.5172 34.5491 67.5266 34.4775C67.5365 34.4675 67.5464 34.4575 67.5566 34.4473Z" fill="#9810FA"/>
<path d="M16.7505 26C16.7342 26.1143 16.6894 26.1699 16.6005 26.2415C16.5609 26.2415 16.5213 26.2415 16.4805 26.2415C16.4904 26.1491 16.4985 26.1026 16.5648 26.0358C16.6305 26 16.6305 26 16.7505 26Z" fill="#9810FA"/>
<path d="M56.009 4.36572C56.0832 4.39561 56.0832 4.39561 56.159 4.42609C56.1491 4.4759 56.1392 4.52571 56.129 4.57702C56.0793 4.58856 56.0292 4.59857 55.979 4.60721C55.949 4.57702 55.949 4.57702 55.9434 4.50345C55.949 4.42609 55.949 4.42609 56.009 4.36572Z" fill="#9810FA"/>
<path d="M21.6084 36.6179C21.6319 36.6192 21.6554 36.6204 21.6796 36.6217C21.6834 36.6934 21.6834 36.6934 21.6796 36.7726C21.6196 36.833 21.6196 36.833 21.5409 36.8368C21.5173 36.8355 21.4938 36.8343 21.4696 36.833C21.4659 36.7613 21.4659 36.7613 21.4696 36.6821C21.5296 36.6217 21.5296 36.6217 21.6084 36.6179Z" fill="#9810FA"/>
<path d="M26.9072 38.8328C26.9307 38.834 26.9542 38.8353 26.9784 38.8365C26.9822 38.9082 26.9822 38.9082 26.9784 38.9875C26.9184 39.0478 26.9184 39.0478 26.8397 39.0516C26.8162 39.0504 26.7927 39.0491 26.7684 39.0478C26.7647 38.9761 26.7647 38.9761 26.7684 38.8969C26.8284 38.8365 26.8284 38.8365 26.9072 38.8328Z" fill="#9810FA"/>
<path d="M63.252 30.0498C63.3411 30.0647 63.3411 30.0647 63.432 30.08C63.4419 30.1298 63.4518 30.1796 63.462 30.2309C63.3195 30.2649 63.3195 30.2649 63.252 30.2309C63.252 30.1712 63.252 30.1114 63.252 30.0498Z" fill="#9810FA"/>
<path d="M56.2949 35.4309C56.384 35.4459 56.384 35.4459 56.4749 35.4611C56.4848 35.5109 56.4947 35.5607 56.5049 35.612C56.3624 35.646 56.3624 35.646 56.2949 35.612C56.2949 35.5523 56.2949 35.4925 56.2949 35.4309Z" fill="#9810FA"/>
<path d="M30.9457 39.1826C30.9819 39.1836 30.9819 39.1836 31.0188 39.1845C31.0287 39.2343 31.0386 39.2841 31.0488 39.3354C30.9776 39.3675 30.9776 39.3675 30.8988 39.3958C30.879 39.3858 30.8592 39.3759 30.8388 39.3656C30.8375 39.3153 30.8376 39.265 30.8388 39.2147C30.8688 39.1845 30.8688 39.1845 30.9457 39.1826Z" fill="#9810FA"/>
<path d="M40.1547 37.7415C40.1909 37.7424 40.1909 37.7424 40.2278 37.7433C40.2377 37.7931 40.2476 37.843 40.2578 37.8943C40.1866 37.9263 40.1866 37.9263 40.1078 37.9546C40.088 37.9447 40.0682 37.9347 40.0478 37.9245C40.0465 37.8742 40.0466 37.8238 40.0478 37.7735C40.0778 37.7433 40.0778 37.7433 40.1547 37.7415Z" fill="#9810FA"/>
<path d="M64.8416 26.7898C64.9129 26.7955 64.9129 26.7955 64.9916 26.82C65.031 26.8973 65.031 26.8973 65.0516 26.9709C64.9804 26.9898 64.9804 26.9898 64.9016 27.0011C64.8416 26.9407 64.8416 26.9407 64.8379 26.8615C64.8391 26.8378 64.8404 26.8142 64.8416 26.7898Z" fill="#9810FA"/>
<path d="M74.3037 11.3933C74.2938 11.4431 74.2839 11.4929 74.2737 11.5442C74.2143 11.5442 74.1549 11.5442 74.0938 11.5442C74.0938 11.4944 74.0938 11.4446 74.0938 11.3933C74.1878 11.3617 74.2134 11.3651 74.3037 11.3933Z" fill="#9810FA"/>
<path d="M60.4209 16.4699C60.411 16.5197 60.4011 16.5695 60.3909 16.6209C60.3315 16.6209 60.2721 16.6209 60.2109 16.6209C60.2109 16.571 60.2109 16.5212 60.2109 16.4699C60.3049 16.4384 60.3306 16.4417 60.4209 16.4699Z" fill="#9810FA"/>
<path d="M48.6811 1.79517C48.7448 1.80649 48.7448 1.80649 48.8011 1.82535C48.8011 1.87516 48.8011 1.92496 48.8011 1.97628C48.7516 1.98624 48.7021 1.9962 48.6511 2.00647C48.6323 1.93478 48.6323 1.93478 48.6211 1.85554C48.6409 1.83561 48.6607 1.81569 48.6811 1.79517Z" fill="#9810FA"/>
<path d="M83.4707 22.262C83.5301 22.262 83.5895 22.262 83.6507 22.262C83.6606 22.3118 83.6705 22.3616 83.6807 22.4129C83.6263 22.4318 83.6263 22.4318 83.5607 22.4431C83.531 22.4232 83.5013 22.4032 83.4707 22.3827C83.4707 22.3429 83.4707 22.303 83.4707 22.262Z" fill="#9810FA"/>
<path d="M79.3613 20.2092C79.6185 20.2351 79.6185 20.2351 79.7213 20.2998C79.7213 20.3197 79.7213 20.3396 79.7213 20.3602C79.4642 20.3343 79.4642 20.3343 79.3613 20.2696C79.3613 20.2497 79.3613 20.2298 79.3613 20.2092Z" fill="#9810FA"/>
<path d="M79.6003 19.334C79.6597 19.3539 79.7191 19.3738 79.7803 19.3944C79.7803 19.4342 79.7803 19.474 79.7803 19.5151C79.711 19.5051 79.6417 19.4952 79.5703 19.4849C79.5802 19.4351 79.5901 19.3853 79.6003 19.334Z" fill="#9810FA"/>
<path d="M70.9741 11.5142C71.0378 11.5425 71.0378 11.5425 71.0941 11.5745C71.0842 11.6243 71.0743 11.6741 71.0641 11.7255C71.0146 11.7155 70.9651 11.7055 70.9141 11.6953C70.9141 11.6455 70.9141 11.5957 70.9141 11.5443C70.9339 11.5344 70.9537 11.5244 70.9741 11.5142Z" fill="#9810FA"/>
<path d="M56.7983 18.8083C56.862 18.8366 56.862 18.8366 56.9183 18.8687C56.9084 18.9185 56.8985 18.9683 56.8883 19.0196C56.8388 19.0097 56.7893 18.9997 56.7383 18.9895C56.7383 18.9397 56.7383 18.8899 56.7383 18.8385C56.7581 18.8286 56.7779 18.8186 56.7983 18.8083Z" fill="#9810FA"/>
<path d="M32.5898 5.35073C32.6611 5.34696 32.6611 5.34696 32.7398 5.35073C32.7596 5.37065 32.7794 5.39058 32.7998 5.4111C32.7886 5.47525 32.7886 5.47525 32.7698 5.53184C32.7203 5.52188 32.6708 5.51192 32.6198 5.50166C32.6099 5.45185 32.6 5.40205 32.5898 5.35073Z" fill="#9810FA"/>
<path d="M26.5957 13.0661C26.667 13.0623 26.667 13.0623 26.7457 13.0661C26.7655 13.086 26.7853 13.1059 26.8057 13.1264C26.7945 13.1906 26.7945 13.1906 26.7757 13.2472C26.7262 13.2372 26.6767 13.2273 26.6257 13.217C26.6158 13.1672 26.6059 13.1174 26.5957 13.0661Z" fill="#9810FA"/>
<path d="M41.8185 35.6226C41.8482 35.6325 41.8779 35.6425 41.9085 35.6527C41.9085 35.7026 41.9085 35.7524 41.9085 35.8037C41.859 35.8136 41.8095 35.8236 41.7585 35.8339C41.7379 35.7791 41.7379 35.7791 41.7285 35.7131C41.7716 35.6603 41.7716 35.6603 41.8185 35.6226Z" fill="#9810FA"/>
<path d="M7.58609 30.9788C7.62229 30.9797 7.62229 30.9797 7.65922 30.9806C7.65922 31.0205 7.65922 31.0603 7.65922 31.1014C7.62922 31.1316 7.62922 31.1316 7.53734 31.1335C7.49372 31.1325 7.49372 31.1325 7.44922 31.1316C7.48295 30.9813 7.48295 30.9813 7.58609 30.9788Z" fill="#9810FA"/>
<path d="M17.8731 15.332C17.9127 15.342 17.9523 15.352 17.9931 15.3622C17.9931 15.412 17.9931 15.4618 17.9931 15.5131C17.9436 15.5231 17.8941 15.5331 17.8431 15.5433C17.8131 15.4528 17.8131 15.4528 17.8412 15.3867C17.857 15.3597 17.857 15.3597 17.8731 15.332Z" fill="#9810FA"/>
<path d="M41.0293 4.66284C41.059 4.66284 41.0887 4.66284 41.1193 4.66284C41.1478 4.77439 41.1478 4.85315 41.1193 4.9647C41.0896 4.9647 41.0599 4.9647 41.0293 4.9647C41.0293 4.86509 41.0293 4.76547 41.0293 4.66284Z" fill="#9810FA"/>
<path d="M41.8862 7.52856C41.9224 7.5295 41.9224 7.5295 41.9593 7.53045C41.9593 7.58026 41.9593 7.63006 41.9593 7.68138C41.9098 7.69134 41.8603 7.7013 41.8093 7.71157C41.7978 7.66157 41.7879 7.61121 41.7793 7.56064C41.8093 7.53045 41.8093 7.53045 41.8862 7.52856Z" fill="#9810FA"/>
<path d="M38.1635 13.9065C38.1997 13.9074 38.1997 13.9074 38.2366 13.9084C38.2366 13.9582 38.2366 14.008 38.2366 14.0593C38.1871 14.0693 38.1376 14.0792 38.0866 14.0895C38.0752 14.0395 38.0652 13.9891 38.0566 13.9386C38.0866 13.9084 38.0866 13.9084 38.1635 13.9065Z" fill="#9810FA"/>
<path d="M54.9294 4.66772C54.9913 4.68093 54.9913 4.68093 55.0494 4.69791C55.0593 4.74772 55.0692 4.79752 55.0794 4.84884C55.02 4.84884 54.9606 4.84884 54.8994 4.84884C54.8981 4.79855 54.8982 4.74821 54.8994 4.69791C54.9093 4.68795 54.9192 4.67799 54.9294 4.66772Z" fill="#9810FA"/>
<path d="M16.282 8.75146C16.3551 8.75901 16.3551 8.75901 16.432 8.78165C16.4518 8.81153 16.4716 8.84142 16.492 8.87221C16.4821 8.89213 16.4722 8.91205 16.462 8.93258C16.3907 8.92503 16.3907 8.92503 16.312 8.90239C16.2726 8.84014 16.2726 8.84014 16.252 8.78165C16.2619 8.77169 16.2718 8.76173 16.282 8.75146Z" fill="#9810FA"/>
<path d="M65.907 32.6663C65.9572 32.6749 66.0073 32.6849 66.057 32.6964C66.0471 32.7463 66.0372 32.7961 66.027 32.8474C65.9874 32.8374 65.9478 32.8275 65.907 32.8172C65.8901 32.7587 65.8901 32.7587 65.877 32.6964C65.8869 32.6865 65.8968 32.6765 65.907 32.6663Z" fill="#9810FA"/>
<path d="M55.709 6.84106C55.7585 6.84106 55.808 6.84106 55.859 6.84106C55.8689 6.88091 55.8788 6.92075 55.889 6.96181C55.8327 6.99388 55.8327 6.99388 55.769 7.02218C55.7492 7.01222 55.7294 7.00226 55.709 6.99199C55.709 6.94219 55.709 6.89238 55.709 6.84106Z" fill="#9810FA"/>
<path d="M13.4506 29.4412C13.4902 29.4412 13.5298 29.4412 13.5706 29.4412C13.5481 29.5147 13.5481 29.5147 13.5106 29.5921C13.4469 29.6166 13.4469 29.6166 13.3906 29.6223C13.3906 29.5015 13.3906 29.5015 13.4506 29.4412Z" fill="#9810FA"/>
<path d="M22.6596 28C22.6992 28 22.7388 28 22.7796 28C22.7571 28.0736 22.7571 28.0736 22.7196 28.1509C22.6559 28.1755 22.6559 28.1755 22.5996 28.1811C22.5996 28.0604 22.5996 28.0604 22.6596 28Z" fill="#9810FA"/>
<path d="M31.3593 2C31.389 2.00996 31.4187 2.01992 31.4493 2.03019C31.4592 2.08995 31.4691 2.14972 31.4793 2.2113C31.4397 2.2113 31.4001 2.2113 31.3593 2.2113C31.3255 2.06792 31.3255 2.06792 31.3593 2Z" fill="#9810FA"/>
<path d="M43.002 13.0452C43.0416 13.0452 43.0812 13.0452 43.122 13.0452C43.1319 13.1049 43.1418 13.1647 43.152 13.2263C43.1025 13.2163 43.053 13.2064 43.002 13.1961C43.002 13.1463 43.002 13.0965 43.002 13.0452Z" fill="#9810FA"/>
<path d="M35.2676 15.8804C35.3072 15.8804 35.3468 15.8804 35.3876 15.8804C35.3975 15.9401 35.4074 15.9999 35.4176 16.0615C35.3681 16.0515 35.3186 16.0416 35.2676 16.0313C35.2676 15.9815 35.2676 15.9317 35.2676 15.8804Z" fill="#9810FA"/>
<path d="M17.4109 26.3318C17.4703 26.3467 17.4703 26.3467 17.5309 26.362C17.521 26.4118 17.5111 26.4616 17.5009 26.5129C17.4613 26.5029 17.4217 26.493 17.3809 26.4827C17.3908 26.4329 17.4007 26.3831 17.4109 26.3318Z" fill="#9810FA"/>
<path d="M63.9222 10.0478C63.9123 10.0877 63.9024 10.1275 63.8922 10.1686C63.8427 10.1686 63.7932 10.1686 63.7422 10.1686C63.7422 10.1287 63.7422 10.0889 63.7422 10.0478C63.8169 10.0103 63.8445 10.0244 63.9222 10.0478Z" fill="#9810FA"/>
<path d="M12.5515 17.0698C12.601 17.0698 12.6505 17.0698 12.7015 17.0698C12.6916 17.1097 12.6817 17.1495 12.6715 17.1906C12.622 17.2005 12.5725 17.2105 12.5215 17.2208C12.5314 17.1709 12.5413 17.1211 12.5515 17.0698Z" fill="#9810FA"/>
<path d="M65.9961 29.8591C66.0821 29.8764 66.1119 29.8851 66.1761 29.9497C66.1761 29.9796 66.1761 30.0095 66.1761 30.0402C66.0901 30.0229 66.0603 30.0142 65.9961 29.9497C65.9961 29.9198 65.9961 29.8899 65.9961 29.8591Z" fill="#9810FA"/>
<path d="M74.9219 25.4917C74.9714 25.5017 75.0209 25.5116 75.0719 25.5219C75.0719 25.5617 75.0719 25.6016 75.0719 25.6426C75.0224 25.6327 74.9729 25.6227 74.9219 25.6124C74.9219 25.5726 74.9219 25.5328 74.9219 25.4917Z" fill="#9810FA"/>
<path d="M13.8828 16.3884C13.9571 16.4034 13.9571 16.4034 14.0328 16.4186C14.0427 16.4585 14.0526 16.4983 14.0628 16.5394C14.0133 16.5294 13.9638 16.5194 13.9128 16.5092C13.9029 16.4693 13.893 16.4295 13.8828 16.3884Z" fill="#9810FA"/>
<path d="M57.3288 8.8938C57.3684 8.91372 57.408 8.93364 57.4488 8.95417C57.4389 8.99402 57.429 9.03386 57.4188 9.07491C57.3792 9.06495 57.3396 9.05499 57.2988 9.04473C57.3087 8.99492 57.3186 8.94511 57.3288 8.8938Z" fill="#9810FA"/>
<path d="M33.8086 31.1851C33.8581 31.1851 33.9076 31.1851 33.9586 31.1851C33.9487 31.2349 33.9388 31.2847 33.9286 31.336C33.889 31.326 33.8494 31.3161 33.8086 31.3058C33.8086 31.266 33.8086 31.2261 33.8086 31.1851Z" fill="#9810FA"/>
<path d="M43.0176 29.7439C43.0671 29.7439 43.1166 29.7439 43.1676 29.7439C43.1577 29.7937 43.1478 29.8435 43.1376 29.8948C43.098 29.8849 43.0584 29.8749 43.0176 29.8646C43.0176 29.8248 43.0176 29.7849 43.0176 29.7439Z" fill="#9810FA"/>
<path d="M42.8379 28.9988C42.8874 28.9988 42.9369 28.9988 42.9879 28.9988C42.978 29.0486 42.9681 29.0984 42.9579 29.1497C42.9183 29.1397 42.8787 29.1298 42.8379 29.1195C42.8379 29.0797 42.8379 29.0398 42.8379 28.9988Z" fill="#9810FA"/>
<path d="M0.220859 27.3027C0.260459 27.3027 0.300059 27.3027 0.340859 27.3027C0.340859 27.3326 0.340859 27.3625 0.340859 27.3933C0.261438 27.4374 0.224025 27.4537 0.130859 27.4537C0.187109 27.3367 0.187109 27.3367 0.220859 27.3027Z" fill="#9810FA"/>
<path d="M70.6133 9.61255C70.6727 9.61255 70.7321 9.61255 70.7933 9.61255C70.7834 9.65239 70.7735 9.69224 70.7633 9.73329C70.7138 9.73329 70.6643 9.73329 70.6133 9.73329C70.6133 9.69345 70.6133 9.6536 70.6133 9.61255Z" fill="#9810FA"/>
<path d="M56.4375 16.9067C56.4969 16.9067 56.5563 16.9067 56.6175 16.9067C56.6076 16.9466 56.5977 16.9864 56.5875 17.0275C56.538 17.0275 56.4885 17.0275 56.4375 17.0275C56.4375 16.9876 56.4375 16.9478 56.4375 16.9067Z" fill="#9810FA"/>
<path d="M39.209 34.7773C39.2585 34.7773 39.308 34.7773 39.359 34.7773C39.359 34.8172 39.359 34.857 39.359 34.8981C39.3095 34.8881 39.26 34.8782 39.209 34.8679C39.209 34.838 39.209 34.8081 39.209 34.7773Z" fill="#9810FA"/>
<path d="M47.1406 35.5911C47.1901 35.5911 47.2396 35.5911 47.2906 35.5911C47.2906 35.6309 47.2906 35.6708 47.2906 35.7118C47.2411 35.7018 47.1916 35.6919 47.1406 35.6816C47.1406 35.6517 47.1406 35.6219 47.1406 35.5911Z" fill="#9810FA"/>
<path d="M19.403 7.54395C19.4624 7.55889 19.4624 7.55889 19.523 7.57413C19.523 7.60401 19.523 7.6339 19.523 7.66469C19.4735 7.65473 19.424 7.64477 19.373 7.6345C19.3829 7.60462 19.3928 7.57473 19.403 7.54395Z" fill="#9810FA"/>
<path d="M8.18961 22.23C8.18961 20.31 9.58961 18.03 12.0496 18.03C12.7196 18.03 12.9696 18.2 13.2496 18.2C13.4996 18.2 13.6696 18.08 13.9096 18.08C14.4096 18.08 14.3196 18.56 14.3396 19.15C14.3596 19.81 14.3996 20.06 14.3996 20.21C14.3996 20.53 14.2096 20.68 14.0196 20.68C13.6996 20.68 13.5896 20.3 13.3796 19.92C13.0396 19.3 12.5996 19.02 12.2096 19.02C11.1896 19.02 10.5996 20.32 10.5996 21.39C10.5996 22.6 11.1796 23.31 12.1496 23.31C12.7896 23.31 13.2496 22.88 13.4996 22.57C13.6396 22.4 13.7496 22.28 13.8496 22.28C13.9996 22.28 14.0496 22.46 14.0496 22.63C14.0496 22.99 13.8996 23.49 13.5696 23.92C13.0196 24.65 12.0496 25.17 10.9996 25.17C9.15961 25.17 8.18961 23.84 8.18961 22.23ZM17.1777 20.8C16.8177 20.8 16.4777 21.77 16.4777 23C16.4777 23.67 16.6977 23.87 16.8677 23.87C17.3177 23.87 17.5577 22.96 17.5577 21.85C17.5577 21.14 17.3477 20.8 17.1777 20.8ZM17.2877 19.77C18.4877 19.77 19.5477 20.59 19.5477 22.05C19.5477 24.07 18.2277 25.1 16.6677 25.1C15.3477 25.1 14.4277 24.18 14.4277 22.92C14.4277 21.09 15.7077 19.77 17.2877 19.77ZM22.8591 17.62C23.5691 17.62 23.9491 18.05 23.9491 18.48C23.9491 18.84 23.6591 19.54 23.0291 19.54C22.8091 19.54 22.7191 19.43 22.6591 19.29C22.5391 18.99 22.4391 18.77 22.2391 18.77C22.0391 18.77 21.9191 18.96 21.9191 19.23C21.9191 19.58 22.2591 20.11 22.8891 20.11C23.0691 20.11 23.1491 20.09 23.2991 20.09C23.4691 20.09 23.6491 20.13 23.6491 20.43C23.6491 20.68 23.4891 21.02 23.2891 21.19C23.2391 21.23 23.1591 21.27 23.0291 21.27C22.9191 21.27 22.7891 21.23 22.6291 21.23C22.5691 21.23 22.4591 21.26 22.4091 21.37C22.3591 21.49 22.2791 21.78 22.0991 23.16C22.0691 23.39 22.0091 24.13 22.0091 24.44C22.0091 24.73 21.9191 24.99 21.6791 25.14C21.4691 25.27 20.6691 25.65 20.0491 25.65C19.6391 25.65 19.5791 25.48 19.5791 25.29C19.5791 25.04 19.7491 24.79 19.8591 24.27C19.9991 23.61 20.3591 21.75 20.3591 21.51C20.3591 21.25 20.2891 21.15 20.1291 21.09C19.9991 21.04 19.9391 20.98 19.9391 20.83C19.9391 20.66 20.1191 20.32 20.3591 20.18C20.4891 20.11 20.5991 20.08 20.6791 19.98C20.7391 19.9 20.8291 19.26 20.9991 18.91C21.3391 18.2 21.8991 17.62 22.8591 17.62ZM26.6091 17.62C27.3191 17.62 27.6991 18.05 27.6991 18.48C27.6991 18.84 27.4091 19.54 26.7791 19.54C26.5591 19.54 26.4691 19.43 26.4091 19.29C26.2891 18.99 26.1891 18.77 25.9891 18.77C25.7891 18.77 25.6691 18.96 25.6691 19.23C25.6691 19.58 26.0091 20.11 26.6391 20.11C26.8191 20.11 26.8991 20.09 27.0491 20.09C27.2191 20.09 27.3991 20.13 27.3991 20.43C27.3991 20.68 27.2391 21.02 27.0391 21.19C26.9891 21.23 26.9091 21.27 26.7791 21.27C26.6691 21.27 26.5391 21.23 26.3791 21.23C26.3191 21.23 26.2091 21.26 26.1591 21.37C26.1091 21.49 26.0291 21.78 25.8491 23.16C25.8191 23.39 25.7591 24.13 25.7591 24.44C25.7591 24.73 25.6691 24.99 25.4291 25.14C25.2191 25.27 24.4191 25.65 23.7991 25.65C23.3891 25.65 23.3291 25.48 23.3291 25.29C23.3291 25.04 23.4991 24.79 23.6091 24.27C23.7491 23.61 24.1091 21.75 24.1091 21.51C24.1091 21.25 24.0391 21.15 23.8791 21.09C23.7491 21.04 23.6891 20.98 23.6891 20.83C23.6891 20.66 23.8691 20.32 24.1091 20.18C24.2391 20.11 24.3491 20.08 24.4291 19.98C24.4891 19.9 24.5791 19.26 24.7491 18.91C25.0891 18.2 25.6491 17.62 26.6091 17.62ZM29.8238 20.76C29.4538 20.76 29.2138 21.28 29.2138 21.76C29.2138 21.93 29.2438 22.04 29.3938 22.04C29.6938 22.04 30.1638 21.63 30.1638 21.16C30.1638 20.89 30.0038 20.76 29.8238 20.76ZM30.2238 19.77C31.4638 19.77 31.8938 20.48 31.8938 21.09C31.8938 22.22 30.4338 22.65 29.5438 22.84C29.4338 22.86 29.4038 22.88 29.4038 22.99C29.4038 23.26 29.6238 23.54 30.1238 23.54C30.7138 23.54 31.1138 23.17 31.3938 22.99C31.4838 22.93 31.5338 22.91 31.5938 22.91C31.6938 22.91 31.7638 22.99 31.7638 23.16C31.7638 23.91 30.8238 25.12 29.2238 25.12C27.8438 25.12 27.0838 24.22 27.0838 22.98C27.0838 21.39 28.3438 19.77 30.2238 19.77ZM34.7945 20.76C34.4245 20.76 34.1845 21.28 34.1845 21.76C34.1845 21.93 34.2145 22.04 34.3645 22.04C34.6645 22.04 35.1345 21.63 35.1345 21.16C35.1345 20.89 34.9745 20.76 34.7945 20.76ZM35.1945 19.77C36.4345 19.77 36.8645 20.48 36.8645 21.09C36.8645 22.22 35.4045 22.65 34.5145 22.84C34.4045 22.86 34.3745 22.88 34.3745 22.99C34.3745 23.26 34.5945 23.54 35.0945 23.54C35.6845 23.54 36.0845 23.17 36.3645 22.99C36.4545 22.93 36.5045 22.91 36.5645 22.91C36.6645 22.91 36.7345 22.99 36.7345 23.16C36.7345 23.91 35.7945 25.12 34.1945 25.12C32.8145 25.12 32.0545 24.22 32.0545 22.98C32.0545 21.39 33.3145 19.77 35.1945 19.77ZM44.4152 18.17C44.6752 18.17 44.7752 18.3 44.7752 18.49C44.7752 19.02 44.2652 18.9 44.0052 19.98C43.8852 20.47 43.5552 23.02 43.5552 23.52C43.5552 24.2 43.9652 24.26 43.9652 24.62C43.9652 24.85 43.7652 25.03 43.4552 25.03C43.0452 25.03 42.6152 25 42.2052 25C41.7852 25 41.3552 25.03 40.9352 25.03C40.6652 25.03 40.5252 24.89 40.5252 24.72C40.5252 24.27 41.0052 24.31 41.2652 23.52C41.3352 23.29 41.5052 22.48 41.5052 22.24C41.5052 22.11 41.4752 21.94 41.2052 21.94H40.3452C40.1152 21.94 40.0352 22.02 39.9752 22.14C39.8352 22.42 39.8352 23.29 39.8352 23.52C39.8352 24.2 40.2452 24.26 40.2452 24.62C40.2452 24.85 40.0452 25.03 39.7352 25.03C39.3252 25.03 38.8952 25 38.4852 25C38.0652 25 37.6352 25.03 37.2152 25.03C36.9452 25.03 36.8052 24.89 36.8052 24.72C36.8052 24.27 37.2852 24.31 37.5452 23.52C37.7152 22.99 38.0952 20.4 38.0952 19.86C38.0952 19.04 37.7152 18.99 37.7152 18.62C37.7152 18.37 37.8352 18.17 38.1852 18.17C38.6152 18.17 39.0252 18.2 39.4452 18.2C39.8752 18.2 40.2952 18.17 40.6952 18.17C40.9552 18.17 41.0552 18.3 41.0552 18.49C41.0552 18.94 40.6352 19 40.3552 19.6C40.2952 19.72 40.1952 19.99 40.1952 20.34C40.1952 20.69 40.3452 20.74 40.5352 20.74H41.3252C41.5752 20.74 41.6752 20.66 41.7552 20.515C41.7852 20.46 41.8202 20.34 41.8202 19.955C41.8202 19.185 41.4352 18.98 41.4352 18.6C41.4352 18.35 41.5552 18.17 41.9052 18.17C42.3352 18.17 42.7452 18.2 43.1652 18.2C43.5952 18.2 44.0152 18.17 44.4152 18.17ZM47.2852 20.8C46.9252 20.8 46.5852 21.77 46.5852 23C46.5852 23.67 46.8052 23.87 46.9752 23.87C47.4252 23.87 47.6652 22.96 47.6652 21.85C47.6652 21.14 47.4552 20.8 47.2852 20.8ZM47.3952 19.77C48.5952 19.77 49.6552 20.59 49.6552 22.05C49.6552 24.07 48.3352 25.1 46.7752 25.1C45.4552 25.1 44.5352 24.18 44.5352 22.92C44.5352 21.09 45.8152 19.77 47.3952 19.77ZM52.6684 17.65C52.8584 17.65 53.0084 17.74 53.0084 17.96C53.0084 18.83 51.9984 22 51.9984 23.16C51.9984 23.58 52.1584 23.72 52.2984 23.72C52.5084 23.72 52.5784 23.44 52.7184 23.44C52.7884 23.44 52.8584 23.49 52.8584 23.68C52.8584 24.19 52.3984 25.1 51.3484 25.1C50.5584 25.1 50.0384 24.45 50.0384 23.62C50.0384 22.28 50.7884 20.35 50.7884 19.53C50.7884 19.21 50.6384 19.06 50.5584 18.99C50.4784 18.92 50.3984 18.85 50.3984 18.72C50.3984 18.38 50.6384 18.25 51.1984 18.03C51.7284 17.82 52.3984 17.65 52.6684 17.65ZM55.3836 17.49C55.9136 17.49 56.2436 17.84 56.2436 18.31C56.2436 19.01 55.5336 19.54 54.8536 19.54C54.2936 19.54 54.0336 19.19 54.0336 18.78C54.0336 18.15 54.6536 17.49 55.3836 17.49ZM55.5636 19.77C55.7536 19.77 55.8836 19.86 55.8836 20.08C55.8836 20.57 55.1436 22.27 55.1436 23.2C55.1436 23.59 55.2836 23.72 55.4236 23.72C55.6336 23.72 55.7236 23.44 55.8636 23.44C55.9336 23.44 56.0036 23.49 56.0036 23.68C56.0036 24.19 55.5736 25.1 54.4936 25.1C53.6736 25.1 53.1736 24.49 53.1736 23.66C53.1736 22.86 53.6136 21.95 53.6136 21.56C53.6136 21.37 53.5336 21.22 53.4436 21.14C53.3636 21.07 53.2536 20.98 53.2536 20.85C53.2536 20.46 53.6136 20.3 54.1836 20.11C54.8236 19.9 55.3436 19.77 55.5636 19.77ZM59.3739 19.77C60.2239 19.77 60.9139 20.19 60.9139 20.92C60.9139 21.54 60.4639 22.09 59.5739 22.09C59.2839 22.09 59.1639 21.96 59.1639 21.78C59.1639 21.69 59.2139 21.49 59.2139 21.35C59.2139 20.97 59.1139 20.73 58.8739 20.73C58.5539 20.73 58.2239 21.05 58.2239 21.84C58.2239 22.6 58.6039 23.31 59.4139 23.31C59.9339 23.31 60.2539 23.04 60.4739 22.9C60.5539 22.85 60.6139 22.82 60.6739 22.82C60.8039 22.82 60.8339 22.94 60.8339 23.07C60.8339 24.04 59.7539 25.12 58.3339 25.12C56.9739 25.12 56.2439 24.18 56.2439 22.96C56.2439 21.33 57.4839 19.77 59.3739 19.77ZM61.1974 22.23C61.1974 20.31 62.5974 18.03 65.0574 18.03C65.7274 18.03 65.9774 18.2 66.2574 18.2C66.5074 18.2 66.6774 18.08 66.9174 18.08C67.4174 18.08 67.3274 18.56 67.3474 19.15C67.3674 19.81 67.4074 20.06 67.4074 20.21C67.4074 20.53 67.2174 20.68 67.0274 20.68C66.7074 20.68 66.5974 20.3 66.3874 19.92C66.0474 19.3 65.6074 19.02 65.2174 19.02C64.1974 19.02 63.6074 20.32 63.6074 21.39C63.6074 22.6 64.1874 23.31 65.1574 23.31C65.7974 23.31 66.2574 22.88 66.5074 22.57C66.6474 22.4 66.7574 22.28 66.8574 22.28C67.0074 22.28 67.0574 22.46 67.0574 22.63C67.0574 22.99 66.9074 23.49 66.5774 23.92C66.0274 24.65 65.0574 25.17 64.0074 25.17C62.1674 25.17 61.1974 23.84 61.1974 22.23ZM70.2367 17.65C70.4267 17.65 70.5767 17.74 70.5767 17.96C70.5767 18.83 69.5667 22 69.5667 23.16C69.5667 23.58 69.7267 23.72 69.8667 23.72C70.0767 23.72 70.1467 23.44 70.2867 23.44C70.3567 23.44 70.4267 23.49 70.4267 23.68C70.4267 24.19 69.9667 25.1 68.9167 25.1C68.1267 25.1 67.6067 24.45 67.6067 23.62C67.6067 22.28 68.3567 20.35 68.3567 19.53C68.3567 19.21 68.2067 19.06 68.1267 18.99C68.0467 18.92 67.9667 18.85 67.9667 18.72C67.9667 18.38 68.2067 18.25 68.7667 18.03C69.2967 17.82 69.9667 17.65 70.2367 17.65ZM73.0608 19.77C73.3308 19.77 73.3908 19.94 73.3908 20.1C73.3908 20.59 72.7508 22.16 72.7508 23.21C72.7508 23.52 72.8708 23.69 73.0508 23.69C73.3808 23.69 73.6408 23.2 73.7508 22.68C73.8608 22.14 73.9308 21.58 73.9308 20.65C73.9308 20.35 74.0008 20.19 74.4908 20.02C74.9808 19.85 75.6508 19.82 75.8608 19.82C76.1108 19.82 76.2008 19.97 76.2008 20.15C76.2008 20.72 75.5508 22.11 75.5508 23.13C75.5508 23.32 75.5908 23.72 75.8508 23.72C76.0508 23.72 76.1408 23.44 76.2808 23.44C76.3508 23.44 76.4308 23.49 76.4308 23.71C76.4308 24.2 76.0408 25.1 74.9708 25.1C74.3908 25.1 74.0808 24.79 73.9208 24.43C73.9008 24.38 73.8608 24.24 73.8008 24.24C73.7708 24.24 73.7108 24.29 73.6208 24.39C73.4208 24.62 72.9108 25.1 72.1808 25.1C71.1508 25.1 70.7908 24.49 70.7908 23.66C70.7908 22.91 71.1708 21.92 71.1708 21.57C71.1708 21.37 71.0808 21.22 70.9808 21.14C70.8608 21.04 70.7808 20.97 70.7808 20.83C70.7808 20.44 71.1308 20.31 71.6808 20.11C72.1608 19.94 72.8208 19.77 73.0608 19.77ZM79.555 21.09C79.215 21.09 78.855 21.87 78.855 23.09C78.855 23.75 79.035 23.96 79.205 23.96C79.605 23.96 79.965 23.04 79.965 21.99C79.965 21.3 79.775 21.09 79.555 21.09ZM79.455 17.65C79.705 17.65 79.795 17.79 79.795 17.96C79.795 18.565 79.17 20.32 79.17 20.48C79.17 20.535 79.19 20.56 79.205 20.56C79.245 20.56 79.35 20.405 79.415 20.34C79.795 19.95 80.155 19.77 80.655 19.77C81.435 19.77 82.005 20.41 82.005 21.72C82.005 23.77 80.695 25.1 78.925 25.1C77.855 25.1 76.905 24.55 76.905 23.31C76.905 22.2 77.575 20.24 77.575 19.53C77.575 19.27 77.455 19.09 77.375 19.02C77.295 18.95 77.185 18.86 77.185 18.73C77.185 18.36 77.425 18.24 78.085 17.99C78.735 17.74 79.255 17.65 79.455 17.65Z" fill="currentColor"/>
</svg>
